<svg height="452pt" viewBox="-36 0 451 452" width="452pt" xmlns="http://www.w3.org/2000/svg"><path d="m65.320312 22.542969c-1.949218 23.125-26.046874 26.777343-26.046874 26.777343 20.691406.972657 25.847656 28.117188 25.847656 28.117188.441406-19.351562 26.644531-28.402344 26.644531-28.402344-19.628906-1.175781-26.445313-26.492187-26.445313-26.492187zm0 0" fill="#d7e057"/><path d="m91.945312 46.039062c-17.210937-1.027343-23.664062-24.046874-23.726562-24.28125-.378906-1.402343-1.707031-2.332031-3.167969-2.203124-1.449219.132812-2.597656 1.285156-2.71875 2.734374-1.71875 20.429688-22.625 23.925782-23.511719 24.0625-1.523437.234376-2.625 1.582032-2.542968 3.121094.078125 1.542969 1.3125 2.769532 2.855468 2.84375 18.054688.847656 22.996094 25.4375 23.042969 25.6875.277344 1.421875 1.519531 2.433594 2.945313 2.433594.085937 0 .167968-.003906.253906-.011719 1.527344-.128906 2.714844-1.386719 2.75-2.917969.386719-17.019531 24.382812-25.554687 24.625-25.640624 1.351562-.46875 2.183594-1.828126 1.984375-3.242188-.195313-1.417969-1.363281-2.5-2.789063-2.585938zm-27.132812 20.691407c-2.710938-6.261719-7.417969-13.816407-15.175781-17.753907 5.863281-2.808593 12.820312-7.828124 16.40625-16.546874 3.101562 6.140624 8.398437 13.761718 16.667969 17.445312-6.015626 3.28125-13.847657 8.8125-17.898438 16.855469zm0 0" fill="#3a312a"/><path d="m21.925781 56.503906c-1.378906 16.355469-18.425781 18.9375-18.425781 18.9375 14.632812.6875 18.28125 19.886719 18.28125 19.886719.3125-13.6875 18.84375-20.089844 18.84375-20.089844-13.882812-.828125-18.699219-18.734375-18.699219-18.734375zm0 0" fill="#d7e057"/><path d="m40.804688 72.246094c-11.53125-.691406-15.941407-16.371094-15.988282-16.53125-.375-1.402344-1.71875-2.304688-3.160156-2.203125-1.453125.128906-2.601562 1.285156-2.722656 2.734375-1.15625 13.742187-15.292969 16.132812-15.882813 16.226562-1.523437.234375-2.625 1.582032-2.546875 3.125.082032 1.539063 1.3125 2.769532 2.855469 2.839844 12.070313.570312 15.445313 17.289062 15.476563 17.453125.273437 1.425781 1.519531 2.4375 2.945312 2.4375.082031 0 .167969-.003906.25-.007813 1.53125-.125 2.71875-1.386718 2.753906-2.921874.257813-11.417969 16.660156-17.265626 16.824219-17.324219 1.351563-.464844 2.183594-1.824219 1.992187-3.242188-.199218-1.417969-1.367187-2.503906-2.796874-2.585937zm-19.167969 13.589844c-1.847657-3.773438-4.679688-7.894532-8.894531-10.558594 3.710937-2.082032 7.394531-5.257813 9.742187-9.832032 2.117187 3.746094 5.308594 7.90625 9.882813 10.445313-3.699219 2.203125-7.976563 5.480469-10.730469 9.945313zm0 0" fill="#3a312a"/><path d="m21.925781 3.1875c-1.378906 16.355469-18.425781 18.941406-18.425781 18.941406 14.632812.6875 18.28125 19.886719 18.28125 19.886719.3125-13.691406 18.84375-20.089844 18.84375-20.089844-13.882812-.832031-18.699219-18.738281-18.699219-18.738281zm0 0" fill="#d7e057"/><path d="m40.804688 18.933594c-11.53125-.695313-15.941407-16.375-15.988282-16.535156-.375-1.402344-1.71875-2.3320318-3.160156-2.203126-1.453125.128907-2.601562 1.285157-2.722656 2.738282-1.15625 13.742187-15.292969 16.128906-15.882813 16.222656-1.523437.234375-2.625 1.582031-2.546875 3.125.082032 1.539062 1.3125 2.769531 2.855469 2.839844 12.070313.570312 15.445313 17.289062 15.476563 17.453125.273437 1.429687 1.519531 2.441406 2.945312 2.441406.082031 0 .167969-.003906.25-.007813 1.53125-.128906 2.71875-1.386718 2.753906-2.921874.257813-11.417969 16.660156-17.269532 16.824219-17.324219 1.351563-.46875 2.183594-1.824219 1.992187-3.242188-.199218-1.417969-1.367187-2.5-2.796874-2.585937zm-19.167969 13.589844c-1.847657-3.777344-4.679688-7.894532-8.894531-10.5625 3.710937-2.082032 7.394531-5.257813 9.742187-9.832032 2.117187 3.746094 5.308594 7.910156 9.882813 10.449219-3.699219 2.199219-7.976563 5.476563-10.730469 9.945313zm0 0" fill="#3a312a"/><path d="m99.269531 134v286c0 16.019531 12.980469 29 29 29h218.640625c16.019532 0 29-12.980469 29-29v-286zm0 0" fill="#fce8cb"/><path d="m375.910156 131h-276.640625c-1.65625 0-3 1.34375-3 3v54.445312c0 1.65625 1.34375 3 3 3s3-1.34375 3-3v-51.445312h270.636719v283c0 14.335938-11.664062 26-26 26h-218.636719c-14.335937 0-26-11.664062-26-26v-200.445312c0-1.65625-1.34375-3-3-3s-3 1.34375-3 3v200.445312c0 17.644531 14.355469 32 32 32h218.636719c17.644531 0 32-14.355469 32-32v-286c.003906-1.65625-1.339844-3-2.996094-3zm0 0" fill="#3a312a"/><path d="m336.40625 292.359375c-5.21875 6.019531-12.480469 9.039063-19.761719 9.039063-7.277343 0-14.539062-3.019532-19.757812-9.039063-5.21875-6.039063-12.480469-9.039063-19.761719-9.039063-7.277344 0-14.539062 3-19.757812 9.039063-5.222657 6.019531-12.480469 9.039063-19.761719 9.039063s-14.539063-3.019532-19.757813-9.039063v-.019531c-10.421875-12.039063-29.101562-12.039063-39.523437 0l-.019531.019531c-10.398438 12.0625-29.078126 12.0625-39.5 0l-.019532-.019531c-10.417968-12.039063-29.097656-12.039063-39.519531 0v127.660156c0 16.019531 12.980469 29 29 29h218.640625c16.019531 0 29-12.980469 29-29v-127.660156c-10.421875-12.039063-29.082031-12.039063-39.5.019531zm0 0" fill="#8ac6dd"/><path d="m378.171875 290.378906c-5.535156-6.398437-13.554687-10.066406-22.007813-10.066406h-.011718c-8.457032.003906-16.480469 3.679688-22.015625 10.085938-4.410157 5.085937-10.789063 8.003906-17.492188 8.003906s-13.082031-2.917969-17.492187-8c-5.53125-6.40625-13.558594-10.082032-22.027344-10.082032s-16.496094 3.675782-22.027344 10.074219c-4.414062 5.089844-10.789062 8.007813-17.492187 8.007813-6.621094 0-12.917969-2.84375-17.324219-7.808594-.050781-.074219-.109375-.144531-.167969-.214844-5.539062-6.398437-13.566406-10.066406-22.03125-10.066406-8.460937 0-16.488281 3.667969-21.898437 9.929688-.054688.054687-.101563.109374-.152344.164062-4.382812 5.082031-10.746094 8-17.460938 8h-.007812c-6.71875 0-13.09375-2.914062-17.511719-8.027344-5.53125-6.398437-13.5625-10.066406-22.027343-10.066406-8.460938 0-16.492188 3.667969-22.027344 10.066406-.472656.546875-.730469 1.242188-.730469 1.964844v127.65625c0 17.644531 14.355469 32 32 32h218.640625c17.644531 0 32-14.355469 32-32v-127.660156c0-.71875-.261719-1.417969-.734375-1.960938zm-5.265625 129.621094c0 14.335938-11.664062 26-26 26h-218.640625c-14.335937 0-26-11.664062-26-26v-126.503906c4.355469-4.582032 10.40625-7.1875 16.761719-7.1875 6.714844 0 13.09375 2.914062 17.507812 8.011718 5.539063 6.410157 13.566406 10.085938 22.027344 10.085938.003906 0 .011719-.003906.015625-.003906 8.457031-.003906 16.476563-3.675782 21.871094-9.941406.050781-.050782.101562-.105469.148437-.160157 4.394532-5.078125 10.769532-7.992187 17.488282-7.992187 6.632812 0 12.933593 2.839844 17.320312 7.796875.054688.078125.113281.148437.175781.21875 5.550781 6.402343 13.578125 10.074219 22.027344 10.074219 8.441406 0 16.472656-3.671876 22.027344-10.078126 4.394531-5.085937 10.769531-8.003906 17.492187-8.003906 6.71875 0 13.09375 2.917969 17.492188 8.007813 5.554687 6.402343 13.582031 10.074219 22.027344 10.074219 8.445312 0 16.472656-3.671876 22.03125-10.078126 4.394531-5.089843 10.765624-8.007812 17.480468-8.011718h.007813c6.347656 0 12.386719 2.605468 16.738281 7.183594zm0 0" fill="#3a312a"/><path d="m354.839844 43.558594h-234.417969l-21.15625 90.441406h276.648437zm0 0" fill="#fce8cb"/><path d="m378.835938 133.316406-21.074219-90.4375c-.316407-1.359375-1.53125-2.320312-2.921875-2.320312h-234.417969c-1.394531 0-2.605469.960937-2.921875 2.316406l-21.15625 90.441406c-.210938.890625 0 1.828125.570312 2.546875.566407.714844 1.433594 1.132813 2.351563 1.132813h276.644531c.917969 0 1.785156-.417969 2.351563-1.132813.570312-.714843.78125-1.652343.574219-2.546875zm-275.789063-2.316406 19.753906-84.441406h229.65625l19.675781 84.441406zm0 0" fill="#3a312a"/><path d="m333.171875 3h-191.164063c-11.917968 0-21.578124 9.660156-21.578124 21.582031v18.980469h234.324218v-18.980469c0-11.921875-9.664062-21.582031-21.582031-21.582031zm0 0" fill="#8ac6dd"/><g fill="#3a312a"><path d="m333.171875 0h-28.523437c-1.65625 0-3 1.34375-3 3s1.34375 3 3 3h28.523437c10.242187 0 18.578125 8.335938 18.578125 18.582031v15.976563h-228.324219v-15.976563c0-10.246093 8.335938-18.582031 18.582031-18.582031h132.519532c1.65625 0 3-1.34375 3-3s-1.34375-3-3-3h-132.519532c-13.554687 0-24.582031 11.027344-24.582031 24.582031v18.976563c0 1.65625 1.34375 3 3 3h234.324219c1.65625 0 3-1.34375 3-3v-18.976563c.003906-13.554687-11.027344-24.582031-24.578125-24.582031zm0 0"/><path d="m205.914062 180.753906h-16.476562l-5.960938 18.546875c-1.820312 6.210938-3.722656 13.578125-5.296874 20.039063h-.246094c-1.242188-6.542969-2.980469-13.496094-4.71875-19.957032l-5.464844-18.625h-16.804688l-3.5625 55.800782h11.675782l.992187-21.195313c.414063-6.957031.664063-15.566406.992188-23.097656h.167969c1.324218 7.285156 3.226562 15.230469 5.050781 21.773437l5.957031 21.609376h9.855469l6.789062-21.773438c2.152344-6.542969 4.472657-14.492188 6.210938-21.609375h.246093c0 8.113281.25 16.226563.496094 22.933594l.828125 21.359375h12.339844zm0 0"/><path d="m218.660156 180.753906h12.667969v55.804688h-12.667969zm0 0"/><path d="m254.921875 225.957031v-45.203125h-12.667969v55.800782h34.851563v-10.597657zm0 0"/><path d="m310.800781 204.515625 18.464844-23.761719h-15.484375l-12.667969 18.546875c-1.242187 1.988281-2.566406 3.972657-3.808593 6.125h-.246094v-24.671875h-12.503906v55.804688h12.503906v-18.214844l4.800781-5.878906 13.660156 24.09375h14.738281zm0 0"/></g><path d="m335.285156 137v112.339844h.101563v39.71875c5.4375-5.578125 12.9375-8.738282 20.757812-8.738282h.023438c6.058593 0 11.878906 1.898438 16.738281 5.339844v-148.660156zm0 0" fill="#decaad"/><path d="m356.167969 286.320312c-3.363281 0-6.640625.71875-9.621094 2.101563-2.980469 1.359375-5.679687 3.359375-7.878906 5.898437-1.023438 1.160157-2.121094 2.257813-3.28125 3.238282-.039063.019531-.0625.0625-.101563.082031v122.359375c0 14.339844-11.660156 26-26 26h37.621094c14.339844 0 26-11.660156 26-26v-126.5c-4.359375-4.578125-10.398438-7.179688-16.738281-7.179688zm0 0" fill="#68a8bc"/><path d="m352.464844 46.558594h-37.617188l19.679688 84.441406h37.597656zm0 0" fill="#decaad"/><path d="m333.167969 6h-26.902344c5.179687 3.761719 8.539063 9.878906 8.539063 16.738281v17.820313h36.941406v-15.980469c0-10.238281-8.339844-18.578125-18.578125-18.578125zm0 0" fill="#68a8bc"/></svg>