<svg height="454pt" viewBox="0 -1 454.26912 454" width="454pt" xmlns="http://www.w3.org/2000/svg"><path d="m399.808594 71.382812c0 21.265626-17.238282 38.503907-38.503906 38.503907-21.265626 0-38.503907-17.238281-38.503907-38.503907 0-21.261718 17.238281-38.503906 38.503907-38.503906 21.265624 0 38.503906 17.242188 38.503906 38.503906zm0 0" fill="#d7e057"/><path d="m361.304688 29.878906c-22.882813 0-41.503907 18.621094-41.503907 41.503906 0 22.886719 18.621094 41.503907 41.503907 41.503907 22.886718 0 41.503906-18.617188 41.503906-41.503907 0-22.882812-18.617188-41.503906-41.503906-41.503906zm0 77.007813c-19.574219 0-35.503907-15.925781-35.503907-35.503907 0-19.578124 15.929688-35.503906 35.503907-35.503906 19.578124 0 35.503906 15.925782 35.503906 35.503906 0 19.578126-15.925782 35.503907-35.503906 35.503907zm0 0" fill="#3a312a"/><path d="m79.722656 206.242188c-2.609375-21.105469-21.835937-36.09375-42.9375-33.484376-21.105468 2.613282-36.09375 21.835938-33.484375 42.941407 2.613281 21.101562 21.835938 36.09375 42.941407 33.480469 21.101562-2.609376 36.09375-21.835938 33.480468-42.9375zm0 0" fill="#d7e057"/><path d="m41.503906 169.480469c-22.886718 0-41.503906 18.617187-41.503906 41.503906 0 22.882813 18.617188 41.503906 41.503906 41.503906 22.886719 0 41.503906-18.621093 41.503906-41.503906 0-22.886719-18.621093-41.503906-41.503906-41.503906zm0 77.007812c-19.578125 0-35.503906-15.925781-35.503906-35.503906s15.925781-35.503906 35.503906-35.503906 35.503906 15.925781 35.503906 35.503906c0 19.574219-15.929687 35.503906-35.503906 35.503906zm0 0" fill="#3a312a"/><path d="m46.1875 3.414062c-21.109375-2.585937-40.316406 12.429688-42.902344 33.539063-2.585937 21.105469 12.429688 40.3125 33.535156 42.898437 21.109376 2.585938 40.316407-12.425781 42.902344-33.535156 2.585938-21.109375-12.429687-40.316406-33.535156-42.902344zm0 0" fill="#d7e057"/><path d="m41.503906.132812c-22.886718 0-41.503906 18.621094-41.503906 41.503907 0 22.886719 18.617188 41.503906 41.503906 41.503906 22.886719 0 41.503906-18.617187 41.503906-41.503906 0-22.882813-18.621093-41.503907-41.503906-41.503907zm0 77.007813c-19.578125 0-35.503906-15.925781-35.503906-35.503906s15.925781-35.503907 35.503906-35.503907 35.503906 15.925782 35.503906 35.503907-15.929687 35.503906-35.503906 35.503906zm0 0" fill="#3a312a"/><path d="m66.195312 347.003906c-1.949218 23.128906-26.046874 26.777344-26.046874 26.777344 20.695312.976562 25.847656 28.121094 25.847656 28.121094.445312-19.355469 26.644531-28.40625 26.644531-28.40625-19.625-1.171875-26.445313-26.492188-26.445313-26.492188zm0 0" fill="#d7e057"/><path d="m92.820312 370.503906c-17.210937-1.03125-23.667968-24.050781-23.726562-24.285156-.382812-1.402344-1.695312-2.3125-3.167969-2.203125-1.453125.132813-2.597656 1.285156-2.71875 2.734375-1.722656 20.429688-22.628906 23.929688-23.507812 24.066406-1.527344.230469-2.628907 1.582032-2.546875 3.121094.078125 1.542969 1.3125 2.769531 2.855468 2.84375 18.054688.847656 23 25.433594 23.046876 25.683594.273437 1.421875 1.515624 2.433594 2.941406 2.433594.082031 0 .167968 0 .253906-.011719 1.527344-.125 2.714844-1.382813 2.75-2.917969.390625-17.019531 24.382812-25.554688 24.625-25.636719 1.351562-.472656 2.183594-1.828125 1.988281-3.246093-.199219-1.414063-1.367187-2.496094-2.792969-2.582032zm-27.132812 20.6875c-2.714844-6.257812-7.417969-13.8125-15.171875-17.753906 5.859375-2.808594 12.816406-7.824219 16.402344-16.542969 3.101562 6.140625 8.398437 13.761719 16.667969 17.445313-6.015626 3.28125-13.847657 8.8125-17.898438 16.851562zm0 0" fill="#3a312a"/><path d="m22.800781 380.964844c-1.378906 16.359375-18.425781 18.941406-18.425781 18.941406 14.636719.6875 18.285156 19.886719 18.285156 19.886719.3125-13.6875 18.84375-20.089844 18.84375-20.089844-13.882812-.832031-18.703125-18.738281-18.703125-18.738281zm0 0" fill="#d7e057"/><path d="m41.683594 396.707031c-11.535156-.6875-15.945313-16.367187-15.988282-16.527343-.382812-1.402344-1.714843-2.324219-3.164062-2.203126-1.453125.128907-2.597656 1.285157-2.722656 2.734376-1.15625 13.742187-15.289063 16.136718-15.882813 16.230468-1.527343.230469-2.625 1.578125-2.546875 3.121094.082032 1.539062 1.316406 2.769531 2.855469 2.84375 12.070313.566406 15.449219 17.285156 15.480469 17.449219.269531 1.425781 1.515625 2.441406 2.945312 2.441406.082032 0 .164063-.003906.25-.011719 1.53125-.125 2.714844-1.386718 2.75-2.921875.261719-11.417969 16.664063-17.265625 16.824219-17.324219 1.355469-.464843 2.191406-1.824218 1.992187-3.242187-.195312-1.421875-1.363281-2.503906-2.792968-2.589844zm-19.167969 13.589844c-1.851563-3.769531-4.679687-7.890625-8.894531-10.558594 3.707031-2.082031 7.394531-5.257812 9.742187-9.832031 2.113281 3.746094 5.308594 7.90625 9.878907 10.445312-3.699219 2.203126-7.976563 5.484376-10.726563 9.945313zm0 0" fill="#3a312a"/><path d="m22.800781 327.652344c-1.378906 16.355468-18.425781 18.9375-18.425781 18.9375 14.636719.691406 18.285156 19.890625 18.285156 19.890625.3125-13.691407 18.84375-20.09375 18.84375-20.09375-13.882812-.828125-18.703125-18.734375-18.703125-18.734375zm0 0" fill="#d7e057"/><path d="m41.683594 343.390625c-11.488282-.6875-15.910156-16.25-15.988282-16.523437-.382812-1.40625-1.71875-2.328126-3.164062-2.207032-1.453125.128906-2.597656 1.285156-2.722656 2.738282-1.15625 13.738281-15.289063 16.128906-15.882813 16.222656-1.527343.230468-2.625 1.582031-2.546875 3.125.082032 1.539062 1.316406 2.765625 2.855469 2.839844 12.070313.570312 15.449219 17.289062 15.480469 17.453124.269531 1.421876 1.515625 2.441407 2.945312 2.441407.082032 0 .164063-.003907.25-.011719 1.53125-.128906 2.714844-1.386719 2.75-2.921875.261719-11.417969 16.664063-17.269531 16.824219-17.324219 1.355469-.46875 2.191406-1.824218 1.992187-3.242187-.195312-1.417969-1.363281-2.5-2.792968-2.589844zm-19.167969 13.59375c-1.851563-3.773437-4.679687-7.894531-8.894531-10.558594 3.707031-2.082031 7.394531-5.261719 9.742187-9.835937 2.113281 3.75 5.308594 7.910156 9.878907 10.449218-3.699219 2.203126-7.976563 5.480469-10.726563 9.945313zm0 0" fill="#3a312a"/><path d="m116.175781 107.757812h317.484375v304.675782h-317.484375zm0 0" fill="#8ac6dd"/><path d="m433.660156 104.757812h-317.484375c-1.65625 0-3 1.339844-3 3v304.675782c0 1.660156 1.34375 3 3 3h317.484375c1.65625 0 3-1.339844 3-3v-304.675782c0-1.660156-1.34375-3-3-3zm-3 304.675782h-311.484375v-298.675782h311.484375zm0 0" fill="#3a312a"/><path d="m116.175781 219.1875h317.484375v82.722656h-317.484375zm0 0" fill="#87796f"/><path d="m433.660156 216.1875h-49.769531c-1.65625 0-3 1.34375-3 3 0 1.660156 1.34375 3 3 3h46.769531v76.71875h-311.484375v-76.71875h234.800781c1.65625 0 3-1.339844 3-3 0-1.65625-1.34375-3-3-3h-237.800781c-1.65625 0-3 1.34375-3 3v82.71875c0 1.660156 1.34375 3 3 3h317.484375c1.65625 0 3-1.339844 3-3v-82.71875c0-1.65625-1.34375-3-3-3zm0 0" fill="#3a312a"/><path d="m440.261719 71.386719h-330.6875c-8.636719 0-13.898438 8.179687-9.316407 14.476562l15.917969 21.894531h317.484375l15.921875-21.894531c4.578125-6.300781-.683593-14.476562-9.320312-14.476562zm0 0" fill="#f16c7a"/><path d="m453.015625 75.703125c-2.300781-4.511719-7.191406-7.320313-12.753906-7.320313h-272.347657c-1.65625 0-3 1.34375-3 3 0 1.660157 1.34375 3 3 3h272.347657c3.945312 0 6.414062 2.089844 7.40625 4.042969.554687 1.09375 1.226562 3.28125-.511719 5.671875l-15.023438 20.65625h-314.429687l-15.019531-20.65625c-1.738282-2.394531-1.066406-4.582031-.511719-5.671875.992187-1.953125 3.464844-4.042969 7.40625-4.042969h28.378906c1.65625 0 3-1.339843 3-3 0-1.65625-1.34375-3-3-3h-28.382812c-5.5625 0-10.453125 2.804688-12.75 7.320313-1.976563 3.882813-1.601563 8.335937 1.003906 11.921875l15.921875 21.894531c.5625.773438 1.464844 1.234375 2.425781 1.234375h317.484375c.960938 0 1.863282-.457031 2.429688-1.234375l15.917968-21.894531c2.605469-3.582031 2.984376-8.039062 1.007813-11.921875zm0 0" fill="#3a312a"/><path d="m449.578125 434.324219-15.917969-21.890625h-317.484375l-15.917969 21.890625c-4.582031 6.300781.679688 14.476562 9.316407 14.476562h330.6875c8.636719 0 13.898437-8.175781 9.316406-14.476562zm0 0" fill="#f16c7a"/><path d="m452.007812 432.5625-15.921874-21.894531c-.5625-.777344-1.464844-1.234375-2.425782-1.234375h-317.484375c-.960937 0-1.863281.457031-2.425781 1.234375l-15.921875 21.894531c-2.605469 3.582031-2.980469 8.039062-1.003906 11.921875 2.300781 4.515625 7.1875 7.316406 12.75 7.316406h330.6875c5.5625 0 10.453125-2.800781 12.753906-7.316406 1.976563-3.882813 1.597656-8.339844-1.007813-11.921875zm-4.339843 9.199219c-.992188 1.953125-3.460938 4.039062-7.40625 4.039062h-330.6875c-3.941407 0-6.410157-2.085937-7.402344-4.039062-.558594-1.089844-1.230469-3.277344.511719-5.671875l15.019531-20.65625h314.429687l15.019532 20.65625c1.742187 2.394531 1.070312 4.582031.515625 5.671875zm0 0" fill="#3a312a"/><path d="m274.648438 192.3125c-37.371094-1.121094-68.578126 28.265625-69.699219 65.640625-1.125 37.375 28.265625 68.582031 65.636719 69.703125 37.375 1.121094 68.582031-28.265625 69.703124-65.640625 1.121094-37.375-28.265624-68.582031-65.640624-69.703125zm0 0" fill="#fce8cb"/><path d="m272.601562 189.296875c-38.984374 0-70.703124 31.714844-70.703124 70.699219s31.714843 70.699218 70.703124 70.699218c38.984376 0 70.699219-31.714843 70.699219-70.699218s-31.714843-70.699219-70.699219-70.699219zm0 135.398437c-35.675781 0-64.703124-29.023437-64.703124-64.699218 0-35.675782 29.027343-64.703125 64.703124-64.703125 35.675782 0 64.699219 29.027343 64.699219 64.703125 0 35.675781-29.023437 64.699218-64.699219 64.699218zm0 0" fill="#3a312a"/><path d="m270.257812 41.636719c0 21.265625-17.242187 38.503906-38.503906 38.503906-21.265625 0-38.507812-17.238281-38.507812-38.503906 0-21.261719 17.242187-38.503907 38.507812-38.503907 21.261719 0 38.503906 17.242188 38.503906 38.503907zm0 0" fill="#d7e057"/><path d="m231.753906.132812c-22.886718 0-41.507812 18.621094-41.507812 41.503907 0 22.886719 18.621094 41.503906 41.507812 41.503906 22.882813 0 41.503906-18.617187 41.503906-41.503906 0-22.882813-18.621093-41.503907-41.503906-41.503907zm0 77.007813c-19.578125 0-35.507812-15.925781-35.507812-35.503906s15.929687-35.503907 35.507812-35.503907c19.574219 0 35.503906 15.925782 35.503906 35.503907s-15.929687 35.503906-35.503906 35.503906zm0 0" fill="#3a312a"/><path d="m175.851562 132.960938c-.558593-21.257813-18.246093-38.039063-39.503906-37.480469-21.261718.5625-38.039062 18.246093-37.480468 39.507812.558593 21.257813 18.246093 38.039063 39.503906 37.476563 21.257812-.558594 38.039062-18.246094 37.480468-39.503906zm0 0" fill="#d7e057"/><path d="m137.34375 92.46875c-22.886719 0-41.503906 18.621094-41.503906 41.503906 0 22.886719 18.617187 41.507813 41.503906 41.507813s41.503906-18.621094 41.503906-41.507813c0-22.882812-18.617187-41.503906-41.503906-41.503906zm0 77.011719c-19.578125 0-35.503906-15.929688-35.503906-35.507813 0-19.574218 15.925781-35.503906 35.503906-35.503906s35.503906 15.929688 35.503906 35.503906c0 19.578125-15.925781 35.507813-35.503906 35.507813zm0 0" fill="#3a312a"/><path d="m400 110.75h30.660156v105.4375h-30.660156zm0 0" fill="#68a8bc"/><path d="m400 304.910156h30.660156v104.519532h-30.660156zm0 0" fill="#68a8bc"/><path d="m400 222.1875h30.660156v76.722656h-30.660156zm0 0" fill="#695b51"/><g fill="#d34e5c"><path d="m447.660156 78.429688c-.980468-1.960938-3.460937-4.042969-7.398437-4.042969h-30.660157c3.9375 0 6.398438 2.082031 7.398438 4.042969.558594 1.097656 1.21875 3.277343-.519531 5.679687l-15.019531 20.640625h30.679687l15.019531-20.640625c1.738282-2.402344 1.058594-4.582031.5-5.679687zm0 0"/><path d="m447.160156 436.089844-15.019531-20.660156h-30.679687l15.019531 20.660156c1.738281 2.398437 1.078125 4.578125.519531 5.679687-1 1.9375-3.460938 4.039063-7.398438 4.039063h30.660157c3.9375 0 6.417969-2.101563 7.398437-4.039063.558594-1.101562 1.238282-3.28125-.5-5.679687zm0 0"/></g></svg>