<svg height="452pt" viewBox="-25 0 452 452.72081" width="452pt" xmlns="http://www.w3.org/2000/svg"><path d="m65.179688 22.355469c-1.945313 23.128906-26.046876 26.777343-26.046876 26.777343 20.691407.972657 25.851563 28.117188 25.851563 28.117188.441406-19.351562 26.640625-28.402344 26.640625-28.402344-19.628906-1.175781-26.445312-26.492187-26.445312-26.492187zm0 0" fill="#d7e057"/><path d="m91.800781 45.851562c-17.207031-1.027343-23.664062-24.046874-23.722656-24.277343-.382813-1.40625-1.695313-2.324219-3.167969-2.207031-1.453125.132812-2.597656 1.285156-2.71875 2.734374-1.722656 20.429688-22.625 23.929688-23.507812 24.066407-1.527344.230469-2.628906 1.582031-2.546875 3.121093.078125 1.542969 1.3125 2.769532 2.855469 2.84375 18.050781.847657 22.996093 25.4375 23.042968 25.683594.273438 1.421875 1.519532 2.433594 2.945313 2.433594.085937 0 .167969 0 .253906-.007812 1.527344-.128907 2.710937-1.386719 2.75-2.917969.386719-17.015625 24.378906-25.554688 24.625-25.640625 1.351563-.46875 2.183594-1.828125 1.988281-3.246094-.199218-1.417969-1.367187-2.5-2.796875-2.585938zm-27.128906 20.691407c-2.714844-6.257813-7.417969-13.8125-15.175781-17.75 5.863281-2.808594 12.820312-7.824219 16.40625-16.546875 3.101562 6.144531 8.398437 13.761718 16.667968 17.445312-6.015624 3.28125-13.847656 8.8125-17.898437 16.851563zm0 0" fill="#3a312a"/><path d="m21.78125 56.316406c-1.375 16.359375-18.421875 18.941406-18.421875 18.941406 14.636719.6875 18.28125 19.890626 18.28125 19.890626.3125-13.691407 18.847656-20.09375 18.847656-20.09375-13.882812-.828126-18.707031-18.738282-18.707031-18.738282zm0 0" fill="#d7e057"/><path d="m40.667969 72.0625c-11.535157-.691406-15.949219-16.371094-15.992188-16.53125-.378906-1.402344-1.738281-2.328125-3.160156-2.203125-1.453125.128906-2.601563 1.285156-2.722656 2.738281-1.15625 13.742188-15.292969 16.132813-15.882813 16.226563-1.527344.230469-2.625 1.578125-2.546875 3.121093.082031 1.539063 1.316407 2.769532 2.855469 2.84375 12.070312.566407 15.449219 17.285157 15.476562 17.449219.273438 1.425781 1.519532 2.441407 2.945313 2.441407.082031 0 .167969-.003907.25-.011719 1.53125-.125 2.71875-1.386719 2.753906-2.917969.261719-11.421875 16.664063-17.269531 16.824219-17.324219 1.355469-.46875 2.1875-1.828125 1.992188-3.246093-.195313-1.417969-1.367188-2.5-2.792969-2.585938zm-19.171875 13.589844c-1.847656-3.773438-4.679688-7.894532-8.894532-10.5625 3.710938-2.082032 7.394532-5.257813 9.742188-9.832032 2.113281 3.746094 5.308594 7.910157 9.882812 10.445313-3.699218 2.203125-7.976562 5.484375-10.730468 9.949219zm0 0" fill="#3a312a"/><path d="m21.78125 3.003906c-1.375 16.355469-18.421875 18.9375-18.421875 18.9375 14.636719.6875 18.28125 19.890625 18.28125 19.890625.3125-13.6875 18.847656-20.089843 18.847656-20.089843-13.882812-.832032-18.707031-18.738282-18.707031-18.738282zm0 0" fill="#d7e057"/><path d="m40.667969 18.746094c-11.535157-.691406-15.949219-16.375-15.992188-16.53125-.378906-1.402344-1.738281-2.324219-3.160156-2.2031252-1.453125.1289062-2.601563 1.2851562-2.722656 2.7343752-1.15625 13.742187-15.292969 16.132812-15.882813 16.230468-1.527344.226563-2.625 1.578126-2.546875 3.121094.082031 1.539063 1.316407 2.765625 2.855469 2.839844 12.070312.570312 15.449219 17.289062 15.476562 17.453125.273438 1.425781 1.519532 2.4375 2.945313 2.4375.082031 0 .167969 0 .25-.007813 1.53125-.128906 2.71875-1.386718 2.753906-2.921874.261719-11.417969 16.664063-17.269532 16.824219-17.324219 1.355469-.46875 2.1875-1.824219 1.992188-3.242188-.195313-1.417969-1.367188-2.5-2.792969-2.585937zm-19.171875 13.589844c-1.847656-3.773438-4.679688-7.894532-8.894532-10.5625 3.710938-2.082032 7.394532-5.257813 9.742188-9.832032 2.113281 3.75 5.308594 7.910156 9.882812 10.449219-3.699218 2.203125-7.976562 5.480469-10.730468 9.945313zm0 0" fill="#3a312a"/><path d="m373.703125 5.078125h-237.09375c-14.042969 0-25.429687 11.382813-25.429687 25.429687v265.464844h.011718v30.640625c-.003906 0-.007812 0-.011718 0v97.675781c0 14.046876 11.386718 25.429688 25.429687 25.429688h237.09375c14.046875 0 25.429687-11.382812 25.429687-25.429688v-393.78125c-.003906-14.042968-11.386718-25.429687-25.429687-25.429687zm0 0" fill="#d7e057"/><path d="m373.703125 2.078125h-237.09375c-15.675781 0-28.429687 12.753906-28.429687 28.429687v265.464844c0 1.71875 1.425781 3.113282 3.195312 2.996094 1.574219-.097656 2.820312-1.398438 2.820312-2.996094 0-.097656-.003906-.195312-.015624-.289062v-265.175782c0-12.367187 10.0625-22.425781 22.429687-22.425781h237.09375c12.371094 0 22.429687 10.0625 22.429687 22.425781v393.785157c0 12.367187-10.058593 22.429687-22.429687 22.429687h-237.09375c-12.367187 0-22.429687-10.0625-22.429687-22.429687v-97.472657c.003906-.066406.007812-.136718.007812-.207031 0-1.65625-1.351562-3-3.007812-3s-3 1.34375-3 3v97.679688c0 15.675781 12.753906 28.429687 28.429687 28.429687h237.09375c15.675781 0 28.429687-12.753906 28.429687-28.429687v-393.785157c-.003906-15.675781-12.753906-28.429687-28.429687-28.429687zm0 0" fill="#3a312a"/><path d="m355.363281 34.539062h-200.414062c-7.527344 0-13.625 6.101563-13.625 13.628907v327.84375c0 7.523437 6.097656 13.625 13.625 13.625h200.414062c7.523438 0 13.625-6.101563 13.625-13.625v-327.84375c0-7.527344-6.101562-13.628907-13.625-13.628907zm0 0" fill="#8ac6dd"/><path d="m355.363281 31.539062h-36.09375c-1.65625 0-3 1.34375-3 3 0 1.660157 1.34375 3 3 3h36.09375c5.859375 0 10.628907 4.769532 10.628907 10.628907v327.84375c0 5.859375-4.769532 10.625-10.628907 10.625h-200.414062c-5.859375 0-10.625-4.765625-10.625-10.625v-327.84375c0-5.859375 4.769531-10.628907 10.625-10.628907h134.835937c1.65625 0 3-1.339843 3-3 0-1.65625-1.34375-3-3-3h-134.835937c-9.167969 0-16.625 7.460938-16.625 16.628907v327.84375c0 9.167969 7.457031 16.625 16.625 16.625h200.414062c9.167969 0 16.628907-7.457031 16.628907-16.625v-327.84375c-.003907-9.167969-7.460938-16.628907-16.628907-16.628907zm0 0" fill="#3a312a"/><path d="m255.15625 401.960938c-9.234375 0-16.71875 7.484374-16.71875 16.71875 0 9.234374 7.484375 16.722656 16.71875 16.722656s16.71875-7.488282 16.71875-16.722656c0-9.234376-7.484375-16.71875-16.71875-16.71875zm0 0" fill="#f16c7a"/><path d="m255.15625 398.960938c-10.875 0-19.71875 8.847656-19.71875 19.71875 0 10.875 8.84375 19.722656 19.71875 19.722656s19.71875-8.847656 19.71875-19.722656c0-10.871094-8.84375-19.71875-19.71875-19.71875zm0 33.441406c-7.566406 0-13.71875-6.15625-13.71875-13.722656 0-7.5625 6.152344-13.71875 13.71875-13.71875 7.5625 0 13.71875 6.152343 13.71875 13.71875 0 7.566406-6.15625 13.722656-13.71875 13.722656zm0 0" fill="#3a312a"/><path d="m355.363281 37.539062h-28c5.859375 0 10.621094 4.761719 10.621094 10.621094v327.859375c0 5.839844-4.761719 10.621094-10.621094 10.621094h28c5.859375 0 10.621094-4.78125 10.621094-10.621094v-327.859375c0-5.859375-4.761719-10.621094-10.621094-10.621094zm0 0" fill="#68a8bc"/></svg>