<svg height="451pt" viewBox="-54 0 451 451.3329" width="451pt" xmlns="http://www.w3.org/2000/svg"><path d="m64.972656 22.332031c-1.898437 23.101563-26 26.800781-26 26.800781 20.699219 1 25.898438 28.101563 25.898438 28.101563.402344-19.402344 26.601562-28.402344 26.601562-28.402344-19.699218-1.199219-26.5-26.5-26.5-26.5zm0 0" fill="#d7e057"/><path d="m91.574219 45.832031c-17.203125-1-23.703125-24-23.703125-24.300781-.398438-1.398438-1.699219-2.296875-3.199219-2.199219-1.398437.101563-2.597656 1.300781-2.699219 2.699219-1.699218 20.402344-22.601562 23.902344-23.5 24.101562-1.5.199219-2.601562 1.601563-2.5 3.101563.101563 1.5 1.300782 2.796875 2.898438 2.796875 18.101562.800781 23 25.402344 23 25.703125.300781 1.398437 1.5 2.398437 2.902344 2.398437h.300781c1.5-.101562 2.699219-1.398437 2.796875-2.898437.402344-17 24.402344-25.601563 24.601562-25.601563 1.398438-.5 2.199219-1.800781 2-3.199218-.300781-1.5-1.5-2.5-2.898437-2.601563zm-27.101563 20.699219c-2.699218-6.296875-7.398437-13.796875-15.199218-17.796875 5.898437-2.800781 12.800781-7.800781 16.398437-16.5 3.101563 6.097656 8.402344 13.796875 16.699219 17.398437-6.097656 3.300782-13.898438 8.800782-17.898438 16.898438zm0 0" fill="#3a312a"/><path d="m21.574219 56.234375c-1.402344 16.398437-18.402344 18.898437-18.402344 18.898437 14.601563.699219 18.300781 19.898438 18.300781 19.898438.300782-13.699219 18.800782-20.097656 18.800782-20.097656-13.902344-.699219-18.699219-18.699219-18.699219-18.699219zm0 0" fill="#d7e057"/><path d="m40.472656 72.03125c-11.5-.699219-15.898437-16.398438-16-16.5-.398437-1.398438-1.699218-2.296875-3.199218-2.199219-1.5.101563-2.601563 1.300781-2.699219 2.699219-1.203125 13.703125-15.300781 16.101562-15.902344 16.203125-1.5.199219-2.5976562 1.597656-2.5 3.097656.101563 1.5 1.300781 2.800781 2.902344 2.800781 12.097656.601563 15.398437 17.300782 15.5 17.5.296875 1.398438 1.5 2.398438 2.898437 2.398438h.199219c1.5-.097656 2.699219-1.398438 2.800781-2.898438.300782-11.398437 16.699219-17.300781 16.800782-17.300781 1.398437-.5 2.199218-1.800781 2-3.199219-.199219-1.398437-1.402344-2.5-2.800782-2.601562zm-19.199218 13.601562c-1.800782-3.800781-4.699219-7.898437-8.902344-10.601562 3.703125-2.097656 7.402344-5.296875 9.703125-9.796875 2.097656 3.699219 5.296875 7.898437 9.898437 10.398437-3.699218 2.199219-8 5.5-10.699218 10zm0 0" fill="#3a312a"/><path d="m21.574219 2.933594c-1.402344 16.398437-18.402344 18.898437-18.402344 18.898437 14.601563.699219 18.300781 19.902344 18.300781 19.902344.300782-13.703125 18.800782-20.101563 18.800782-20.101563-13.902344-.800781-18.699219-18.699218-18.699219-18.699218zm0 0" fill="#d7e057"/><path d="m40.472656 18.734375c-11.5-.703125-15.898437-16.402344-16-16.5-.398437-1.402344-1.699218-2.3007812-3.199218-2.203125-1.5.101562-2.601563 1.300781-2.699219 2.703125-1.203125 13.699219-15.300781 16.097656-15.902344 16.199219-1.5.199218-2.5976562 1.597656-2.5 3.097656.101563 1.5 1.300781 2.800781 2.902344 2.800781 12.097656.601563 15.398437 17.300781 15.5 17.5.296875 1.402344 1.5 2.402344 2.898437 2.402344h.199219c1.5-.101563 2.699219-1.402344 2.800781-2.902344.300782-11.398437 16.699219-17.300781 16.800782-17.300781 1.398437-.5 2.199218-1.796875 2-3.199219-.199219-1.5-1.402344-2.5-2.800782-2.597656zm-19.199218 13.597656c-1.800782-3.800781-4.699219-7.898437-8.902344-10.597656 3.703125-2.101563 7.402344-5.300781 9.703125-9.800781 2.097656 3.699218 5.296875 7.898437 9.898437 10.398437-3.699218 2.199219-8 5.5-10.699218 10zm0 0" fill="#3a312a"/><path d="m319.472656 10.832031c-12.398437-11.199219-29.199218-12.800781-46.199218 6-14.199219 15.601563-23.300782 39.601563-18.902344 53.699219.902344 2.902344 2.402344 5.300781 4.402344 7.203125 9.097656 8.296875 27.800781 3.5 43.800781-7.203125 5.597656-3.796875 10.898437-8.199219 15.398437-13.097656 17.199219-18.800782 13.898438-35.300782 1.5-46.601563zm-8.300781 34.902344c-6.398437 7.097656-17.300781 7.597656-24.398437 1.199219-7.101563-6.402344-7.601563-17.300782-1.199219-24.402344 6.398437-7.097656 17.296875-7.597656 24.398437-1.199219 7.101563 6.402344 7.601563 17.300781 1.199219 24.402344zm0 0" fill="#fce8cb"/><path d="m271.371094 84.53125c-5.5 0-10.5-1.398438-14.199219-4.796875-2.300781-2.101563-4.097656-4.902344-5.097656-8.300781-4.601563-14.5 4-39.101563 19.398437-56.199219 16.199219-17.902344 34.300782-20.101563 49.800782-6.203125 15.398437 14 14.898437 32.300781-1.300782 50.101562-4.5 4.898438-9.898437 9.601563-15.800781 13.5-10.300781 6.898438-22.5 11.898438-32.800781 11.898438zm28.601562-79.5c-8.199218 0-16.699218 4.5-24.800781 13.5-14.097656 15.601562-22.300781 38.601562-18.300781 51.300781.800781 2.5 2.101562 4.601563 3.703125 6.101563 7.398437 6.699218 24.199219 3.699218 40.796875-7.402344 5.601562-3.699219 10.703125-8.097656 14.902344-12.699219 14.300781-15.800781 14.898437-31 1.597656-43.097656-5.699219-5.203125-11.796875-7.703125-17.898438-7.703125zm-1.601562 48.800781c-4.898438 0-9.597656-1.800781-13.199219-5.097656-3.898437-3.5-6.199219-8.402344-6.5-13.703125-.300781-5.296875 1.601563-10.296875 5.101563-14.199219 3.5-3.898437 8.398437-6.199219 13.699218-6.5 5.300782-.300781 10.300782 1.5 14.199219 5.101563 8.101563 7.300781 8.699219 19.800781 1.402344 27.898437-3.5 3.902344-8.402344 6.199219-13.703125 6.5-.296875 0-.597656 0-1 0zm.101562-34.5c-.199218 0-.5 0-.699218 0-3.902344.199219-7.601563 1.902344-10.199219 4.800781-2.601563 2.898438-4 6.699219-3.800781 10.601563.199218 3.898437 1.898437 7.597656 4.800781 10.199219 2.898437 2.597656 6.699219 4 10.597656 3.800781 3.902344-.203125 7.601563-1.902344 10.199219-4.800781 5.5-6 5-15.402344-1-20.800782-2.796875-2.398437-6.296875-3.800781-9.898438-3.800781zm0 0" fill="#3a312a"/><path d="m110.371094 107.832031h229.800781v302.699219h-229.800781zm0 0" fill="#8ac6dd"/><path d="m340.171875 104.832031h-229.800781c-1.699219 0-3 1.300781-3 3v244c0 1.699219 1.300781 3 3 3 1.703125 0 3-1.300781 3-3v-241h223.800781v296.699219h-223.800781v-24.597656c0-1.699219-1.296875-3-3-3-1.699219 0-3 1.300781-3 3v27.597656c0 1.703125 1.300781 3 3 3h229.800781c1.699219 0 3-1.296875 3-3v-302.699219c0-1.699219-1.300781-3-3-3zm0 0" fill="#3a312a"/><path d="m333.871094 88.03125c-3.296875-10.398438-13-17.398438-23.898438-17.398438h-169.300781c-10.898437 0-20.5 7-23.898437 17.398438l-6.402344 19.800781h229.800781zm0 0" fill="#fce8cb"/><path d="m343.074219 106.933594-6.402344-19.800782c-3.800781-11.601562-14.5-19.5-26.699219-19.5h-71.601562c-1.699219 0-3 1.300782-3 3 0 1.699219 1.300781 3 3 3h71.601562c9.601563 0 18.101563 6.199219 21 15.300782l5.101563 15.898437h-221.5l5.097656-15.898437c3-9.199219 11.402344-15.300782 21-15.300782h67.601563c1.699218 0 3-1.300781 3-3 0-1.699218-1.300782-3-3-3h-67.601563c-12.199219 0-23 7.800782-26.699219 19.5l-6.398437 19.800782c-.300781.898437-.101563 1.898437.398437 2.699218.5.800782 1.5 1.199219 2.398438 1.199219h229.800781c1 0 1.902344-.5 2.402344-1.199219.5-.699218.796875-1.800781.5-2.699218zm0 0" fill="#3a312a"/><path d="m110.371094 411.132812 6.402344 19.800782c3.300781 10.398437 13 17.398437 23.898437 17.398437h169.300781c10.898438 0 20.5-7 23.898438-17.398437l6.402344-19.800782zm0 0" fill="#fce8cb"/><path d="m342.671875 409.332031c-.597656-.800781-1.5-1.199219-2.398437-1.199219h-229.902344c-1 0-1.898438.5-2.398438 1.199219-.601562.800781-.699218 1.800781-.398437 2.699219l6.398437 19.800781c3.800782 11.601563 14.5 19.5 26.699219 19.5h169.300781c12.199219 0 23-7.800781 26.699219-19.5l6.402344-19.800781c.296875-.898438.097656-1.898438-.402344-2.699219zm-11.699219 20.699219c-3 9.203125-11.398437 15.300781-21 15.300781h-169.300781c-9.597656 0-18.097656-6.199219-21-15.300781l-5.097656-15.898438h221.597656zm0 0" fill="#3a312a"/><path d="m295.871094 191.53125c-.296875-.296875-.5-.597656-.796875-.796875-17.703125-18.101563-42.402344-29.300781-69.800781-29.300781-27.402344 0-52 11.199218-69.800782 29.300781-.300781.296875-.5.5-.800781.796875h-44.300781v135.300781h44.300781c.402344.402344.699219.800781 1.101563 1.101563 17.699218 17.898437 42.300781 29 69.5 29 27.199218 0 51.699218-11.101563 69.5-29 .398437-.402344.699218-.699219 1.097656-1.101563h44.300781v-135.300781zm0 0" fill="#d7e057"/><path d="m340.171875 188.53125h-43.097656c-19.101563-19.398438-44.601563-30.097656-71.800781-30.097656-27.199219 0-52.699219 10.699218-71.800782 30.097656h-43.101562c-1.699219 0-3 1.300781-3 3v135.300781c0 1.699219 1.300781 3 3 3h43.101562c.101563.101563.199219.199219.199219.199219 19.101563 19.300781 44.5 29.902344 71.601563 29.902344 27.097656 0 52.5-10.601563 71.5-29.800782.097656-.101562.199218-.199218.300781-.300781h43.097656c1.699219 0 3-1.300781 3-3v-135.300781c0-1.597656-1.300781-3-3-3zm-3 135.300781h-41.300781c-.796875 0-1.597656.300781-2.199219.902344-.300781.296875-.597656.699219-1 1.097656-18 18.101563-41.898437 28.101563-67.300781 28.101563-25.5 0-49.398438-10-67.398438-28.199219-.300781-.300781-.699218-.703125-1-1-.601562-.601563-1.398437-.902344-2.199218-.902344h-41.300782v-129.300781h41.300782c.800781 0 1.597656-.398438 2.199218-1 .199219-.296875.5-.5.699219-.796875 18-18.300781 42-28.402344 67.601563-28.402344 25.597656 0 49.597656 10.101563 67.699218 28.5.199219.199219.398438.402344.699219.699219.601563.601562 1.402344 1 2.199219 1h41.300781zm0 0" fill="#3a312a"/><path d="m289.148438 248.878906c-5.714844-35.214844-38.898438-59.132812-74.113282-53.417968-35.21875 5.714843-59.132812 38.898437-53.417968 74.117187 5.714843 35.214844 38.898437 59.132813 74.113281 53.417969 35.21875-5.714844 59.136719-38.898438 53.417969-74.117188zm0 0" fill="#fce8cb"/><path d="m225.273438 191.632812c-37.300782 0-67.601563 30.300782-67.601563 67.601563 0 37.296875 30.300781 67.597656 67.601563 67.597656 37.300781 0 67.597656-30.300781 67.597656-67.597656 0-37.300781-30.296875-67.601563-67.597656-67.601563zm0 129.199219c-34 0-61.601563-27.597656-61.601563-61.597656s27.601563-61.601563 61.601563-61.601563 61.597656 27.601563 61.597656 61.601563-27.597656 61.597656-61.597656 61.597656zm0 0" fill="#3a312a"/><path d="m301.972656 329.832031h35.199219v77.699219h-35.199219zm0 0" fill="#68a8bc"/><path d="m301.972656 110.832031h35.199219v77.699219h-35.199219zm0 0" fill="#68a8bc"/><path d="m330.972656 88.933594c-3-9.199219-11.398437-15.300782-21-15.300782h-35.199218c9.597656 0 18.097656 6.199219 21 15.300782l5.097656 15.898437h35.203125zm0 0" fill="#decaad"/><path d="m300.871094 414.132812-5.097656 15.898438c-3 9.101562-11.402344 15.300781-21 15.300781h35.199218c9.601563 0 18.101563-6.199219 21-15.300781l5.101563-15.898438zm0 0" fill="#decaad"/><path d="m301.972656 194.53125h35.199219v129.300781h-35.199219zm0 0" fill="#b9c239"/></svg>