<svg height="451pt" viewBox="0 0 451 451.448" width="451pt" xmlns="http://www.w3.org/2000/svg"><path d="m323.683594 225.78125h-2.601563c-4.292969 0-8.308593 2.125-10.722656 5.675781l-38.796875 57.074219c-6.839844 10.0625-22.523438 6.011719-23.632812-6.105469l-8.125-88.695312c-.609376-6.675781-6.207032-11.78125-12.910157-11.78125-6.417969 0-11.871093 4.695312-12.824219 11.042969l-12.117187 80.902343c-1.722656 11.503907-16.558594 15.09375-23.347656 5.648438l-34-47.296875c-2.433594-3.386719-6.351563-5.394532-10.527344-5.394532h-1.277344c-9.761719 0-16.023437 10.378907-11.46875 19.011719l51.816407 98.246094c.984374 1.863281 1.5 3.9375 1.5 6.046875v88.324219c0 7.160156 5.804687 12.96875 12.964843 12.96875h79.230469c7.160156 0 12.964844-5.804688 12.964844-12.96875v-89.21875c0-2.175781.546875-4.316407 1.589844-6.222657l53.664062-98.070312c4.722656-8.640625-1.527344-19.1875-11.378906-19.1875zm0 0" fill="#fce8cb"/><path d="m337.421875 227.605469c-2.90625-4.898438-8.042969-7.824219-13.738281-7.824219h-2.601563c-5.292969 0-10.226562 2.613281-13.203125 6.988281l-38.800781 57.078125c-2.90625 4.273438-7.445313 4.894532-10.734375 4.042969-3.285156-.847656-6.960938-3.589844-7.433594-8.738281l-8.121094-88.695313c-.757812-8.273437-7.59375-14.511719-15.898437-14.511719-7.839844 0-14.628906 5.847657-15.789063 13.601563l-12.121093 80.902344c-.734375 4.890625-4.359375 7.445312-7.511719 8.207031-3.148438.765625-7.546875.148438-10.4375-3.867188l-33.996094-47.292968c-2.988281-4.160156-7.835937-6.644532-12.960937-6.644532h-1.28125c-5.644531 0-10.753907 2.882813-13.667969 7.714844-2.917969 4.835938-3.085938 10.703125-.453125 15.695313l51.816406 98.246093c.75 1.425782 1.148438 3.035157 1.148438 4.648438v30.464844c0 1.660156 1.34375 3 3 3s3-1.339844 3-3v-30.464844c0-2.585938-.632813-5.160156-1.839844-7.449219l-51.820313-98.242187c-1.640624-3.117188-1.539062-6.777344.285157-9.796875 1.816406-3.019531 5.007812-4.816407 8.53125-4.816407h1.28125c3.199219 0 6.222656 1.546876 8.089843 4.144532l33.996094 47.292968c3.871094 5.382813 10.273438 7.753907 16.71875 6.199219 6.441406-1.554687 11.054688-6.597656 12.035156-13.148437l12.121094-80.902344c.722656-4.839844 4.960938-8.492188 9.855469-8.492188 5.183594 0 9.453125 3.894532 9.921875 9.058594l8.125 88.695313c.621094 6.796875 5.296875 12.292969 11.90625 14 6.613281 1.710937 13.359375-.835938 17.195312-6.480469l38.800782-57.078125c1.855468-2.730469 4.9375-4.363281 8.238281-4.363281h2.605469c3.554687 0 6.761718 1.828125 8.574218 4.882812 1.808594 3.058594 1.875 6.746094.167969 9.867188l-53.664062 98.070312c-1.28125 2.34375-1.957031 4.996094-1.957031 7.664063v89.21875c0 5.492187-4.46875 9.964843-9.964844 9.964843h-79.226563c-5.496093 0-9.96875-4.472656-9.96875-9.964843v-26.878907c0-1.65625-1.34375-3-3-3s-3 1.34375-3 3v26.878907c0 8.800781 7.164063 15.964843 15.96875 15.964843h79.226563c8.800781 0 15.964844-7.164062 15.964844-15.964843v-89.21875c0-1.667969.421874-3.320313 1.222656-4.785157l53.660156-98.070312c2.738281-4.992188 2.632812-10.898438-.265625-15.800781zm0 0" fill="#3a312a"/><path d="m447.890625 105.335938c0-43.265626-35.070313-78.335938-78.332031-78.335938-9.128906 0-17.886719 1.578125-26.035156 4.449219-18.457032-17.609375-43.4375-28.449219-70.964844-28.449219-8.011719 0-15.796875.945312-23.277344 2.679688l-27.980469 11.03125c-7.605469 4.386718-14.609375 9.691406-20.828125 15.808593-14.6875-17.628906-36.800781-28.855469-61.542968-28.855469-31.875 0-59.398438 18.628907-72.285157 45.59375-36.230469 7.667969-63.421875 39.816407-63.421875 78.332032 0 28.460937 14.867188 53.441406 37.242188 67.640625-1.234375 5.28125-1.90625 10.777343-1.90625 16.433593 0 39.765626 32.234375 72 72 72 38.375 0 69.730468-30.027343 71.875-67.867187 16.277344 17.152344 39.273437 27.867187 64.789062 27.867187 10.734375 0 21.023438-1.894531 30.558594-5.363281 14.613281 26.636719 42.914062 44.699219 75.441406 44.699219 47.496094 0 86-38.503906 86-86 0-14.71875-3.703125-28.570312-10.21875-40.683594 11.761719-13.703125 18.886719-31.507812 18.886719-50.980468zm0 0" fill="#d7e057"/><path d="m450.890625 105.335938c0-44.851563-36.484375-81.335938-81.332031-81.335938-8.621094 0-17.125 1.355469-25.296875 4.03125-19.613281-18.089844-45-28.03125-71.703125-28.03125-8 0-16.058594.929688-23.953125 2.757812-1.617188.375-2.621094 1.984376-2.246094 3.601563.371094 1.609375 1.976563 2.621094 3.601563 2.242187 7.449218-1.726562 15.054687-2.605468 22.597656-2.605468 25.761718 0 50.226562 9.8125 68.894531 27.621094.8125.78125 2.003906 1.035156 3.066406.660156 8.058594-2.839844 16.484375-4.28125 25.039063-4.28125 41.539062 0 75.332031 33.796875 75.332031 75.335937 0 17.972657-6.449219 35.382813-18.164063 49.027344-.804687.941406-.953124 2.285156-.367187 3.375 6.453125 11.992187 9.863281 25.570313 9.863281 39.261719 0 45.769531-37.234375 83-83 83-30.3125 0-58.210937-16.53125-72.8125-43.140625-.710937-1.296875-2.265625-1.878907-3.652344-1.375-9.457031 3.441406-19.390624 5.183593-29.535156 5.183593-23.894531 0-46.132812-9.5625-62.613281-26.933593-.820313-.863281-2.082031-1.164063-3.210937-.75-1.121094.414062-1.890626 1.453125-1.960938 2.648437-2.0625 36.46875-32.320312 65.039063-68.878906 65.039063-38.042969 0-69-30.953125-69-69 0-5.257813.617187-10.554688 1.828125-15.753907.292969-1.242187-.238281-2.53125-1.3125-3.214843-22.449219-14.246094-35.847657-38.585938-35.847657-65.109375 0-36.203125 25.671876-67.910156 61.042969-75.394532.910157-.191406 1.683594-.800781 2.085938-1.640624 12.742187-26.660157 40.050781-43.886719 69.578125-43.886719 22.9375 0 44.53125 10.125 59.238281 27.773437.535156.644532 1.316406 1.035156 2.152344 1.078125.835937.046875 1.65625-.273437 2.253906-.859375 6.015625-5.914062 12.816406-11.074218 20.222656-15.347656 1.433594-.828125 1.925781-2.664062 1.097657-4.097656-.828126-1.4375-2.664063-1.925782-4.097657-1.101563-6.910156 3.988281-13.328125 8.710938-19.121093 14.066407-15.769532-17.523438-38.09375-27.507813-61.75-27.507813-31.332032 0-60.351563 17.996094-74.34375 45.972656-37.382813 8.617188-64.363282 42.417969-64.363282 80.949219 0 27.882812 13.742188 53.53125 36.871094 69.023438-1.019531 4.980468-1.535156 10.03125-1.535156 15.054687 0 41.355469 33.644531 75 75 75 37.582031 0 69.039062-27.78125 74.238281-64.328125 17.066406 15.730469 39 24.328125 62.425781 24.328125 9.988282 0 19.796875-1.585937 29.183594-4.710937 15.960938 27.230468 45.160156 44.042968 76.816406 44.042968 49.074219 0 89-39.925781 89-89 0-14-3.324218-27.886718-9.628906-40.296875 11.8125-14.492187 18.296875-32.648437 18.296875-51.371093zm0 0" fill="#3a312a"/><path d="m382.085938 374.6875c-1.949219 23.128906-26.050782 26.777344-26.050782 26.777344 20.691406.976562 25.847656 28.121094 25.847656 28.121094.441407-19.355469 26.644532-28.40625 26.644532-28.40625-19.628906-1.171876-26.441406-26.492188-26.441406-26.492188zm0 0" fill="#d7e057"/><path d="m408.707031 398.1875c-17.207031-1.03125-23.664062-24.050781-23.726562-24.285156-.382813-1.402344-1.703125-2.335938-3.167969-2.199219-1.449219.132813-2.597656 1.28125-2.71875 2.734375-1.71875 20.429688-22.625 23.925781-23.507812 24.066406-1.527344.226563-2.628907 1.578125-2.546876 3.121094.082032 1.539062 1.316407 2.765625 2.855469 2.839844 18.058594.851562 23 25.4375 23.046875 25.683594.273438 1.421874 1.519532 2.4375 2.945313 2.4375.082031 0 .167969-.007813.25-.011719 1.53125-.128907 2.714843-1.386719 2.75-2.921875.386719-17.015625 24.382812-25.550782 24.625-25.636719 1.351562-.46875 2.183593-1.828125 1.988281-3.246094-.195312-1.414062-1.363281-2.496093-2.792969-2.582031zm-27.132812 20.6875c-2.710938-6.257812-7.417969-13.8125-15.171875-17.75 5.863281-2.8125 12.816406-7.828125 16.402344-16.546875 3.101562 6.140625 8.398437 13.761719 16.667968 17.445313-6.015625 3.277343-13.84375 8.8125-17.898437 16.851562zm0 0" fill="#3a312a"/><path d="m338.6875 408.648438c-1.378906 16.359374-18.425781 18.941406-18.425781 18.941406 14.636719.6875 18.285156 19.886718 18.285156 19.886718.3125-13.6875 18.84375-20.089843 18.84375-20.089843-13.882813-.832031-18.703125-18.738281-18.703125-18.738281zm0 0" fill="#d7e057"/><path d="m357.570312 424.390625c-11.53125-.6875-15.945312-16.371094-15.988281-16.527344-.378906-1.40625-1.71875-2.324219-3.160156-2.207031-1.453125.132812-2.601563 1.289062-2.722656 2.738281-1.15625 13.742188-15.292969 16.132813-15.886719 16.226563-1.523438.230468-2.625 1.582031-2.542969 3.121094.078125 1.542968 1.3125 2.769531 2.855469 2.84375 12.070312.566406 15.445312 17.289062 15.476562 17.453124.273438 1.425782 1.519532 2.4375 2.945313 2.4375.082031 0 .167969 0 .25-.007812 1.53125-.125 2.71875-1.390625 2.753906-2.921875.257813-11.417969 16.660157-17.269531 16.824219-17.324219 1.351562-.46875 2.183594-1.828125 1.992188-3.246094-.199219-1.414062-1.371094-2.5-2.796876-2.585937zm-19.171874 13.589844c-1.847657-3.769531-4.679688-7.890625-8.890626-10.558594 3.710938-2.082031 7.394532-5.261719 9.738282-9.832031 2.117187 3.75 5.308594 7.90625 9.882812 10.445312-3.699218 2.203125-7.976562 5.484375-10.730468 9.945313zm0 0" fill="#3a312a"/><path d="m338.6875 355.335938c-1.378906 16.355468-18.425781 18.941406-18.425781 18.941406 14.636719.6875 18.285156 19.886718 18.285156 19.886718.3125-13.6875 18.84375-20.089843 18.84375-20.089843-13.882813-.832031-18.703125-18.738281-18.703125-18.738281zm0 0" fill="#d7e057"/><path d="m357.570312 371.074219c-11.53125-.6875-15.945312-16.371094-15.988281-16.527344-.378906-1.40625-1.71875-2.324219-3.160156-2.203125-1.453125.128906-2.601563 1.285156-2.722656 2.734375-1.15625 13.742187-15.292969 16.132813-15.886719 16.226563-1.523438.230468-2.625 1.582031-2.542969 3.125.078125 1.539062 1.3125 2.765624 2.855469 2.839843 12.070312.570313 15.445312 17.289063 15.476562 17.453125.273438 1.421875 1.519532 2.4375 2.945313 2.4375.082031 0 .167969 0 .25-.007812 1.53125-.125 2.71875-1.386719 2.753906-2.921875.257813-11.417969 16.660157-17.269531 16.824219-17.324219 1.351562-.46875 2.183594-1.828125 1.992188-3.246094-.199219-1.414062-1.371094-2.5-2.796876-2.585937zm-19.171874 13.59375c-1.847657-3.773438-4.679688-7.894531-8.890626-10.558594 3.710938-2.082031 7.394532-5.261719 9.738282-9.835937 2.117187 3.75 5.308594 7.910156 9.882812 10.449218-3.699218 2.203125-7.976562 5.480469-10.730468 9.945313zm0 0" fill="#3a312a"/><path d="m298.703125 267.089844-41.9375 71.519531c-1.28125 2.339844-1.960937 4.980469-1.960937 7.660156v89.21875c0 5.5-4.480469 9.960938-9.960938 9.960938h22c5.480469 0 9.960938-4.460938 9.960938-9.960938v-89.21875c0-2.679687.679687-5.320312 1.960937-7.660156l34.199219-62.5c-5.019532-2.542969-9.800782-5.5625-14.261719-9.019531zm0 0" fill="#decaad"/><path d="m426.722656 154.148438c11.722656-13.640626 18.160156-31.058594 18.160156-49.039063 0-41.542969-33.777343-75.320313-75.320312-75.320313-4.257812 0-8.476562.359376-12.636719 1.078126 35.519531 6.039062 62.617188 37.019531 62.617188 74.242187 0 17.980469-6.4375 35.398437-18.160157 49.039063-.796874.941406-.957031 2.28125-.359374 3.378906 6.441406 11.980468 9.859374 25.5625 9.859374 39.261718 0 41.4375-30.539062 75.898438-70.296874 82.019532 4.136718.660156 8.359374.980468 12.636718.980468 45.761719 0 83-37.242187 83-83 0-13.699218-3.417968-27.28125-9.859375-39.261718-.597656-1.097656-.4375-2.4375.359375-3.378906zm0 0" fill="#b9c239"/><g fill="#3a312a"><path d="m203.050781 29.8125c-1.167969-1.167969-3.070312-1.167969-4.242187.003906-19.257813 19.285156-30.320313 45.949219-30.347656 73.160156-.003907 1.65625 1.339843 3 2.996093 3h.003907c1.652343 0 2.996093-1.339843 3-2.996093.027343-25.636719 10.449218-50.757813 28.59375-68.925781 1.171874-1.171876 1.171874-3.070313-.003907-4.242188zm0 0"/><path d="m177.335938 177.398438c-18.636719-37.210938-64.074219-52.328126-101.292969-33.6875-1.480469.742187-2.082031 2.542968-1.339844 4.023437s2.542969 2.082031 4.027344 1.339844c34.253906-17.152344 76.082031-3.246094 93.242187 31.011719.523438 1.050781 1.582032 1.65625 2.683594 1.65625.453125 0 .910156-.101563 1.339844-.316407 1.480468-.742187 2.082031-2.546875 1.339844-4.027343zm0 0"/><path d="m369.15625 181.527344c-41.757812 0-75.730469-33.972656-75.730469-75.734375 0-1.65625-1.347656-3-3-3-1.65625 0-3 1.34375-3 3 0 45.070312 36.664063 81.734375 81.730469 81.734375 1.65625 0 3-1.339844 3-3 0-1.65625-1.34375-3-3-3zm0 0"/></g></svg>