<?xml version="1.0" encoding="utf-8"?>
<!-- Generator: Adobe Illustrator 22.0.1, SVG Export Plug-In . SVG Version: 6.00 Build 0)  -->
<svg xmlns="http://www.w3.org/2000/svg" xmlns:xlink="http://www.w3.org/1999/xlink" version="1.1" id="Layer_2" x="0px" y="0px" viewBox="0 0 256 256" style="enable-background:new 0 0 256 256;" xml:space="preserve" width="512" height="512">
<style type="text/css">
	.st0{fill:#3A312A;}
	.st1{fill:#D7E057;}
	.st2{fill:#F16C7A;}
	.st3{fill:#8AC6DD;}
	.st4{fill:#CE4E61;}
	.st5{fill:#68A8BC;}
	.st6{fill:#87796F;}
	.st7{fill:#FCE8CB;}
	.st8{fill:#6B5B51;}
	.st9{fill:#B9BC39;}
	.st10{fill:#CCAE8B;}
	.st11{fill:#8AC6DD;stroke:#3A312A;stroke-width:3;stroke-linecap:round;stroke-linejoin:round;stroke-miterlimit:10;}
	.st12{fill:#F5978A;}
	.st13{fill-rule:evenodd;clip-rule:evenodd;fill:#D7E057;}
	.st14{fill-rule:evenodd;clip-rule:evenodd;fill:#FCE8CB;}
</style>
<g>
	<g>
		<g>
			<path class="st13" d="M239.051,127.077c-1.503-1.833-14.73,4.145-28.101,15.11c-13.371,10.966-21.752,22.852-20.319,24.6     c1.34,1.634,14.731-4.145,28.101-15.11C232.103,140.711,240.485,128.825,239.051,127.077z"/>
		</g>
	</g>
	<g>
		<g>
			<path class="st0" d="M240.211,126.126c-2.998-3.66-19.619,6.213-30.212,14.901c-10.593,8.688-23.527,23.053-20.527,26.711     c0.241,0.295,0.668,0.815,1.998,0.815c1.541,0,4.295-0.699,9.375-3.257c3.527-1.775,10.664-5.755,18.839-12.46     c8.242-6.759,13.524-12.919,15.939-15.989C242.174,128.52,240.748,126.78,240.211,126.126z M217.781,150.517     c-11.3,9.268-22.305,14.469-25.65,15.01c1.1-3.026,7.901-12.445,19.77-22.179c12.055-9.887,22.646-14.695,25.678-15.086     C236.568,131.203,229.752,140.7,217.781,150.517z"/>
		</g>
	</g>
	<g>
		<g>
			<path class="st13" d="M235.519,169.143c-0.467-2.324-14.953-3.253-31.906,0.155c-16.953,3.408-29.933,9.97-29.487,12.187     c0.417,2.072,14.953,3.253,31.906-0.155C222.985,177.922,235.965,171.359,235.519,169.143z"/>
		</g>
	</g>
	<g>
		<g>
			<path class="st0" d="M236.99,168.848c-0.933-4.639-20.24-3.721-33.672-1.021c-13.432,2.7-31.595,9.314-30.663,13.953     c0.463,2.303,5.675,3.213,12.412,3.213c6.636,0,14.752-0.884,21.26-2.192C219.76,180.101,237.922,173.486,236.99,168.848z      M205.737,179.859c-14.327,2.881-26.485,2.309-29.694,1.215c2.392-2.156,12.818-7.28,27.867-10.306     c15.284-3.073,26.893-2.348,29.754-1.271C231.39,171.621,220.915,176.809,205.737,179.859z"/>
		</g>
	</g>
	<g>
		<g>
			<path class="st13" d="M197.107,122.306c-2.086-0.871-11.062,10.573-17.723,26.531c-6.661,15.958-8.347,30.444-6.397,31.258     c2.086,0.871,11.062-10.573,17.723-26.531C197.371,137.607,199.295,123.22,197.107,122.306z"/>
		</g>
	</g>
	<g>
		<g>
			<path class="st0" d="M197.685,120.923c-0.78-0.327-2.857-1.191-8.951,7.476c-2.247,3.195-6.628,10.025-10.734,19.861     c-4.073,9.758-5.833,17.737-6.52,21.625c-1.845,10.438,0.171,11.278,0.929,11.595c0.189,0.079,0.453,0.189,0.831,0.189     c1.187,0,3.498-1.089,8.121-7.665c2.247-3.195,6.629-10.024,10.734-19.861c3.062-7.336,5.409-14.999,6.608-21.58     C200.603,122.14,198.483,121.256,197.685,120.923z M189.326,152.986c-5.912,14.166-12.978,23.388-15.562,25.311     c-0.444-3.359,1.375-15.396,7.004-28.881c5.963-14.288,13.101-23.546,15.627-25.359     C196.893,127.074,195.331,138.6,189.326,152.986z"/>
		</g>
	</g>
	<g>
		<g>
			<path class="st13" d="M209.557,190.435c-0.467-2.324-14.953-3.253-31.906,0.155c-16.953,3.408-29.933,9.97-29.487,12.187     c0.416,2.072,14.953,3.254,31.906-0.154S210.003,192.652,209.557,190.435z"/>
		</g>
	</g>
	<g>
		<g>
			<path class="st0" d="M211.028,190.14c-0.933-4.639-20.24-3.721-33.672-1.021c-10.45,2.101-18.005,5.062-21.579,6.639     c-9.694,4.28-9.25,6.484-9.083,7.314c0.463,2.303,5.675,3.213,12.412,3.213c6.636,0,14.752-0.884,21.26-2.192     c10.45-2.101,18.005-5.062,21.579-6.639C211.638,193.174,211.195,190.97,211.028,190.14z M179.775,201.151     c-14.327,2.881-26.485,2.309-29.694,1.215c2.392-2.156,12.818-7.28,27.866-10.306c15.286-3.073,26.893-2.348,29.754-1.271     C205.428,192.913,194.952,198.101,179.775,201.151z"/>
		</g>
	</g>
	<g>
		<g>
			<path class="st13" d="M171.146,143.599c-2.086-0.871-11.062,10.573-17.723,26.531c-6.66,15.958-8.347,30.444-6.397,31.258     c2.086,0.871,11.063-10.573,17.723-26.531C171.409,158.898,173.333,144.512,171.146,143.599z"/>
		</g>
	</g>
	<g>
		<g>
			<path class="st0" d="M171.724,142.215c-0.782-0.326-2.855-1.193-8.952,7.476c-2.246,3.195-6.628,10.024-10.734,19.861     c-4.072,9.758-5.833,17.737-6.52,21.625c-1.844,10.438,0.171,11.278,0.93,11.595c0.188,0.079,0.453,0.189,0.83,0.189     c1.187,0,3.498-1.089,8.121-7.665c2.247-3.195,6.628-10.025,10.734-19.861c3.061-7.336,5.409-14.999,6.608-21.58     C174.641,143.432,172.521,142.548,171.724,142.215z M163.364,174.278c-5.912,14.166-12.979,23.388-15.562,25.311     c-0.444-3.359,1.375-15.395,7.004-28.881c5.964-14.289,13.101-23.547,15.628-25.359     C170.931,148.366,169.369,159.892,163.364,174.278z"/>
		</g>
	</g>
	<g>
		<g>
			<path class="st13" d="M183.595,211.727c-0.467-2.324-14.953-3.253-31.906,0.155c-16.953,3.408-29.933,9.97-29.487,12.187     c0.416,2.072,14.953,3.254,31.906-0.154C171.061,220.506,184.041,213.944,183.595,211.727z"/>
		</g>
	</g>
	<g>
		<g>
			<path class="st0" d="M185.066,211.432c-0.933-4.639-20.24-3.721-33.672-1.021c-10.45,2.101-18.005,5.062-21.579,6.639     c-9.694,4.28-9.25,6.484-9.083,7.313c0.162,0.807,0.592,2.947,11.189,3.183c0.486,0.011,1.037,0.018,1.648,0.018     c4.347,0,11.747-0.352,20.835-2.179C167.835,222.685,185.998,216.07,185.066,211.432z M153.813,222.443     c-14.327,2.882-26.486,2.309-29.694,1.215c2.392-2.156,12.818-7.28,27.866-10.306c15.283-3.073,26.893-2.348,29.754-1.271     C179.466,214.205,168.99,219.393,153.813,222.443z"/>
		</g>
	</g>
	<g>
		<g>
			<path class="st13" d="M145.183,164.891c-2.086-0.871-11.062,10.573-17.723,26.531c-6.661,15.958-8.347,30.444-6.397,31.258     c2.086,0.871,11.063-10.573,17.723-26.531C145.447,180.191,147.371,165.804,145.183,164.891z"/>
		</g>
	</g>
	<g>
		<g>
			<path class="st0" d="M145.761,163.507c-0.781-0.326-2.857-1.191-8.951,7.476c-2.247,3.195-6.628,10.025-10.734,19.861     c-4.072,9.758-5.833,17.737-6.52,21.625c-1.844,10.438,0.171,11.278,0.93,11.595c0.189,0.079,0.453,0.189,0.83,0.189     c1.187,0,3.498-1.089,8.121-7.665c2.247-3.195,6.628-10.025,10.734-19.861c3.062-7.336,5.408-15,6.608-21.58     C148.679,164.724,146.559,163.84,145.761,163.507z M137.402,195.57c-5.913,14.166-12.979,23.388-15.561,25.311     c-0.444-3.359,1.375-15.395,7.004-28.881c5.963-14.287,13.101-23.546,15.627-25.359     C144.969,169.658,143.407,181.184,137.402,195.57z"/>
		</g>
	</g>
	<g>
		<g>
			<path class="st0" d="M191.852,165.786c-0.524-0.639-1.47-0.734-2.111-0.209l-81.755,67.049c-0.641,0.525-0.734,1.471-0.208,2.111     c0.296,0.361,0.727,0.549,1.161,0.549c0.334,0,0.671-0.111,0.95-0.34l81.755-67.049     C192.285,167.372,192.378,166.427,191.852,165.786z"/>
		</g>
	</g>
	<g>
		<g>
			<path class="st3" d="M212.133,40.066c-4.216-4.216-13.253-2.016-20.183,4.915c-6.931,6.931-9.131,15.967-4.915,20.183     s13.253,2.016,20.183-4.915C214.149,53.319,216.35,44.282,212.133,40.066z"/>
		</g>
	</g>
	<g>
		<g>
			<path class="st0" d="M213.194,39.006c-2.424-2.423-6.15-3.179-10.489-2.12c-4.076,0.992-8.272,3.49-11.815,7.034     c-3.544,3.544-6.042,7.74-7.034,11.815c-1.057,4.341-0.304,8.066,2.12,10.489c1.708,1.708,4.062,2.587,6.822,2.587     c1.157,0,2.385-0.154,3.667-0.467c4.076-0.992,8.272-3.49,11.815-7.034c3.544-3.544,6.042-7.74,7.034-11.815     C216.371,45.154,215.618,41.429,213.194,39.006z M212.399,48.785c-0.864,3.549-3.08,7.244-6.241,10.404s-6.855,5.376-10.404,6.24     c-3.285,0.801-6.004,0.327-7.659-1.326c-1.655-1.654-2.125-4.374-1.326-7.658c0.864-3.549,3.08-7.244,6.24-10.404     c3.16-3.16,6.855-5.376,10.404-6.24c1.045-0.255,2.032-0.38,2.946-0.38c1.96,0,3.584,0.578,4.712,1.706     C212.727,42.781,213.198,45.501,212.399,48.785z"/>
		</g>
	</g>
	<g>
		<g>
			<path class="st3" d="M205.739,59.282c-9.801,0-17.747,4.834-17.747,10.797c0,5.963,7.946,10.797,17.747,10.797     c9.801,0,17.747-4.834,17.747-10.797C223.487,64.116,215.541,59.282,205.739,59.282z"/>
		</g>
	</g>
	<g>
		<g>
			<path class="st0" d="M205.739,57.782c-10.793,0-19.247,5.401-19.247,12.297s8.454,12.297,19.247,12.297     c10.792,0,19.247-5.401,19.247-12.297S216.532,57.782,205.739,57.782z M205.74,79.376c-8.807,0-16.247-4.258-16.247-9.297     s7.44-9.297,16.247-9.297c8.807,0,16.247,4.258,16.247,9.297S214.546,79.376,205.74,79.376z"/>
		</g>
	</g>
	<g>
		<g>
			<ellipse class="st3" cx="182.145" cy="46.484" rx="10.797" ry="17.747"/>
		</g>
	</g>
	<g>
		<g>
			<path class="st0" d="M182.144,27.237c-6.895,0-12.296,8.454-12.296,19.246c0,10.793,5.401,19.247,12.296,19.247     c6.895,0,12.296-8.454,12.296-19.246C194.441,35.691,189.04,27.237,182.144,27.237z M182.144,62.73     c-5.039,0-9.296-7.44-9.296-16.247s4.257-16.246,9.296-16.246c5.039,0,9.296,7.44,9.296,16.247S187.184,62.73,182.144,62.73z"/>
		</g>
	</g>
	<g>
		<g>
			<path class="st3" d="M187.846,64.353c-4.216-4.216-13.253-2.016-20.183,4.915c-6.931,6.931-9.131,15.967-4.915,20.184     c4.216,4.216,13.253,2.016,20.183-4.915C189.862,77.606,192.063,68.569,187.846,64.353z"/>
		</g>
	</g>
	<g>
		<g>
			<path class="st0" d="M188.907,63.292c-4.875-4.877-14.673-2.717-22.305,4.915c-7.631,7.631-9.79,17.429-4.914,22.305     c1.76,1.761,4.162,2.604,6.872,2.604c4.796,0,10.557-2.642,15.433-7.519C191.624,77.965,193.783,68.168,188.907,63.292z      M181.871,83.476c-6.227,6.227-14.498,8.479-18.062,4.915c-3.563-3.563-1.313-11.835,4.914-18.063     c4.217-4.217,9.37-6.609,13.365-6.609c1.905,0,3.546,0.544,4.697,1.694C190.349,68.977,188.098,77.248,181.871,83.476z"/>
		</g>
	</g>
	<g>
		<g>
			<path class="st3" d="M181.453,83.569c-9.801,0-17.747,4.834-17.747,10.797c0,5.963,7.946,10.797,17.747,10.797     c9.802,0,17.747-4.834,17.747-10.797C199.2,88.403,191.254,83.569,181.453,83.569z"/>
		</g>
	</g>
	<g>
		<g>
			<path class="st0" d="M181.453,82.069c-10.793,0-19.247,5.401-19.247,12.296c0,6.896,8.454,12.297,19.247,12.297     c10.793,0,19.247-5.401,19.247-12.297C200.7,87.471,192.246,82.069,181.453,82.069z M181.453,103.662     c-8.807,0-16.247-4.258-16.247-9.297s7.44-9.296,16.247-9.296c8.807,0,16.247,4.257,16.247,9.296     S190.259,103.662,181.453,103.662z"/>
		</g>
	</g>
	<g>
		<g>
			<path class="st3" d="M157.858,53.024c-4.462,0-8.29,4.45-9.935,10.796l-0.071,13.598c1.601,6.506,5.475,11.1,10.006,11.1     c5.963,0,10.797-7.946,10.797-17.747C168.654,60.969,163.82,53.024,157.858,53.024z"/>
		</g>
	</g>
	<g>
		<g>
			<path class="st0" d="M157.858,51.523c-5.041,0-9.51,4.679-11.388,11.92c-0.208,0.802,0.274,1.62,1.076,1.828     c0.804,0.205,1.621-0.274,1.829-1.076c1.5-5.785,4.909-9.672,8.483-9.672c5.039,0,9.296,7.44,9.296,16.247     s-4.257,16.247-9.296,16.247c-3.648,0-7.084-4.002-8.55-9.959c-0.198-0.805-1.011-1.294-1.815-1.099     c-0.805,0.198-1.296,1.011-1.098,1.815c1.83,7.437,6.33,12.242,11.463,12.242c6.895,0,12.296-8.454,12.296-19.247     S164.753,51.523,157.858,51.523z"/>
		</g>
	</g>
	<g>
		<g>
			<path class="st3" d="M163.56,88.64c-4.216-4.217-13.253-2.016-20.183,4.915s-9.131,15.967-4.915,20.183     s13.253,2.016,20.183-4.915C165.576,101.893,167.776,92.856,163.56,88.64z"/>
		</g>
	</g>
	<g>
		<g>
			<path class="st0" d="M164.62,87.579c-4.876-4.874-14.673-2.715-22.304,4.915c-7.632,7.632-9.791,17.429-4.915,22.305     c1.76,1.761,4.162,2.604,6.872,2.604c4.796,0,10.557-2.643,15.433-7.519C167.337,102.253,169.496,92.455,164.62,87.579z      M157.584,107.763c-6.228,6.228-14.499,8.479-18.063,4.915c-3.563-3.563-1.312-11.835,4.915-18.063     c4.217-4.217,9.37-6.609,13.365-6.609c1.905,0,3.546,0.544,4.697,1.694C166.062,93.264,163.811,101.535,157.584,107.763z"/>
		</g>
	</g>
	<g>
		<g>
			<path class="st3" d="M157.166,107.856c-9.801,0-17.747,4.834-17.747,10.797c0,5.963,7.946,10.797,17.747,10.797     c9.801,0,17.747-4.834,17.747-10.797C174.913,112.689,166.967,107.856,157.166,107.856z"/>
		</g>
	</g>
	<g>
		<g>
			<path class="st0" d="M170.495,109.736c-3.583-2.18-8.317-3.381-13.329-3.381c-10.793,0-19.247,5.401-19.247,12.297     s8.454,12.297,19.247,12.297c10.792,0,19.247-5.401,19.247-12.297C176.413,115.225,174.311,112.059,170.495,109.736z      M157.166,127.949c-8.807,0-16.247-4.258-16.247-9.297s7.44-9.297,16.247-9.297c4.469,0,8.649,1.046,11.769,2.943     c2.887,1.757,4.477,4.014,4.477,6.354C173.413,123.691,165.973,127.949,157.166,127.949z"/>
		</g>
	</g>
	<g>
		<g>
			<ellipse class="st3" cx="133.571" cy="95.058" rx="10.797" ry="17.747"/>
		</g>
	</g>
	<g>
		<g>
			<path class="st0" d="M133.571,75.811c-6.895,0-12.296,8.454-12.296,19.247s5.401,19.247,12.296,19.247     c6.896,0,12.297-8.454,12.297-19.247S140.466,75.811,133.571,75.811z M133.571,111.305c-5.039,0-9.296-7.44-9.296-16.247     s4.257-16.247,9.296-16.247c5.04,0,9.297,7.44,9.297,16.247S138.61,111.305,133.571,111.305z"/>
		</g>
	</g>
	<g>
		<g>
			<path class="st3" d="M139.273,112.927c-4.216-4.217-13.253-2.016-20.183,4.915c-6.931,6.931-9.131,15.967-4.915,20.183     c4.216,4.216,13.253,2.016,20.183-4.915C141.289,126.179,143.489,117.143,139.273,112.927z"/>
		</g>
	</g>
	<g>
		<g>
			<path class="st0" d="M140.333,111.866c-2.423-2.423-6.15-3.176-10.489-2.12c-4.076,0.993-8.272,3.491-11.815,7.035     c-3.544,3.544-6.042,7.739-7.034,11.815c-1.057,4.34-0.304,8.065,2.12,10.488c1.708,1.708,4.062,2.587,6.822,2.587     c1.157,0,2.385-0.154,3.667-0.467c4.076-0.992,8.272-3.49,11.815-7.034c3.544-3.544,6.042-7.74,7.034-11.815     C143.51,118.015,142.757,114.289,140.333,111.866z M139.539,121.646c-0.864,3.549-3.081,7.244-6.241,10.404     c-3.16,3.16-6.855,5.376-10.404,6.24c-3.286,0.802-6.003,0.328-7.659-1.326c-1.655-1.654-2.126-4.374-1.326-7.658     c0.864-3.548,3.081-7.243,6.241-10.403c3.161-3.16,6.855-5.377,10.404-6.241c1.044-0.254,2.032-0.38,2.947-0.38     c1.959,0,3.583,0.578,4.711,1.706C139.867,115.642,140.338,118.361,139.539,121.646z"/>
		</g>
	</g>
	<g>
		<g>
			<ellipse class="st3" cx="132.879" cy="142.939" rx="17.747" ry="10.797"/>
		</g>
	</g>
	<g>
		<g>
			<path class="st0" d="M132.879,130.643c-10.793,0-19.247,5.401-19.247,12.297s8.455,12.297,19.248,12.297     c10.792,0,19.247-5.401,19.247-12.297S143.672,130.643,132.879,130.643z M132.879,152.236c-8.807,0-16.248-4.258-16.248-9.297     s7.44-9.297,16.247-9.297c8.807,0,16.247,4.258,16.247,9.297S141.686,152.236,132.879,152.236z"/>
		</g>
	</g>
	<g>
		<g>
			<path class="st3" d="M109.284,101.597c-5.963,0-10.797,7.946-10.797,17.747s4.834,17.747,10.797,17.747     c5.963,0,10.797-7.946,10.797-17.747C120.081,109.543,115.247,101.597,109.284,101.597z"/>
		</g>
	</g>
	<g>
		<g>
			<path class="st0" d="M109.284,100.098c-6.896,0-12.297,8.454-12.297,19.247c0,10.792,5.401,19.246,12.297,19.246     c6.895,0,12.296-8.454,12.296-19.246C121.581,108.552,116.179,100.098,109.284,100.098z M109.284,135.591     c-5.04,0-9.297-7.439-9.297-16.246s4.257-16.247,9.297-16.247c5.039,0,9.296,7.44,9.296,16.247S114.323,135.591,109.284,135.591z     "/>
		</g>
	</g>
	<g>
		<g>
			
				<ellipse transform="matrix(0.7071 -0.7071 0.7071 0.7071 -75.8951 116.2994)" class="st3" cx="102.437" cy="149.763" rx="17.747" ry="10.797"/>
		</g>
	</g>
	<g>
		<g>
			<path class="st0" d="M116.046,136.153c-2.423-2.424-6.148-3.179-10.489-2.12c-4.075,0.992-8.271,3.49-11.815,7.034     c-7.631,7.631-9.79,17.429-4.915,22.305c1.76,1.76,4.162,2.604,6.871,2.604c4.796,0,10.557-2.643,15.433-7.519     c3.544-3.544,6.042-7.739,7.034-11.815C119.223,142.302,118.47,138.576,116.046,136.153z M115.251,145.933     c-0.864,3.548-3.081,7.243-6.241,10.403c-6.228,6.228-14.497,8.478-18.062,4.915c-3.563-3.563-1.313-11.835,4.915-18.063     c3.161-3.16,6.855-5.376,10.404-6.24c1.044-0.255,2.032-0.38,2.946-0.38c1.96,0,3.584,0.578,4.712,1.706     C115.58,139.929,116.051,142.648,115.251,145.933z"/>
		</g>
	</g>
	<g>
		<g>
			<ellipse class="st3" cx="108.592" cy="167.226" rx="17.747" ry="10.797"/>
		</g>
	</g>
	<g>
		<g>
			<path class="st0" d="M108.592,154.93c-10.793,0-19.247,5.401-19.247,12.296c0,6.896,8.454,12.297,19.247,12.297     c10.793,0,19.247-5.401,19.247-12.297C127.839,160.331,119.385,154.93,108.592,154.93z M108.592,176.522     c-8.807,0-16.247-4.258-16.247-9.297s7.44-9.296,16.247-9.296c8.807,0,16.247,4.257,16.247,9.296     S117.399,176.522,108.592,176.522z"/>
		</g>
	</g>
	<g>
		<g>
			<ellipse class="st3" cx="84.997" cy="143.631" rx="10.797" ry="17.747"/>
		</g>
	</g>
	<g>
		<g>
			<path class="st0" d="M84.998,124.384c-6.896,0-12.297,8.454-12.297,19.247s5.401,19.247,12.297,19.247     c6.895,0,12.296-8.454,12.296-19.247S91.893,124.384,84.998,124.384z M84.998,159.878c-5.04,0-9.297-7.44-9.297-16.247     s4.257-16.247,9.297-16.247c5.039,0,9.296,7.44,9.296,16.247S90.037,159.878,84.998,159.878z"/>
		</g>
	</g>
	<g>
		<g>
			<path class="st0" d="M90.96,161.263c-0.586-0.586-1.535-0.586-2.121,0l-32.136,32.137c-0.586,0.586-0.586,1.535,0,2.121     c0.293,0.293,0.677,0.439,1.061,0.439c0.384,0,0.768-0.146,1.061-0.439l32.136-32.137     C91.546,162.798,91.546,161.849,90.96,161.263z"/>
		</g>
	</g>
	<g>
		<g>
			<path class="st5" d="M211.073,41.126c-1.15-1.15-2.79-1.69-4.7-1.69c-1.06,0-2.2,0.17-3.38,0.5c3.27,4.4,1.98,11.76-3.02,18.3     c0.09,0.02,0.17,0.03,0.26,0.05c1.74-0.33,3.59-0.5,5.51-0.5c0.56,0,1.12,0.02,1.67,0.05     C212.673,51.806,214.383,44.437,211.073,41.126z"/>
		</g>
	</g>
	<g>
		<g>
			<path class="st5" d="M207.573,60.846c3.95,2.24,6.41,5.52,6.41,9.23c0,3.72-2.45,7-6.4,9.23c7.97-0.54,14.4-4.55,14.4-9.23     C221.983,65.386,215.553,61.386,207.573,60.846z"/>
		</g>
	</g>
	<g>
		<g>
			<path class="st5" d="M183.273,85.126c3.97,2.24,6.43,5.52,6.43,9.24c0,3.71-2.46,7-6.41,9.23c7.98-0.54,14.41-4.55,14.41-9.23     C197.703,89.677,191.263,85.667,183.273,85.126z"/>
		</g>
	</g>
	<g>
		<g>
			<path class="st5" d="M158.993,109.417c3.96,2.24,6.42,5.52,6.42,9.24c0,3.71-2.45,6.99-6.41,9.23     c7.98-0.54,14.41-4.54,14.41-9.23S166.973,109.957,158.993,109.417z"/>
		</g>
	</g>
	<g>
		<g>
			<path class="st5" d="M134.703,133.707c3.96,2.24,6.42,5.51,6.42,9.23s-2.45,7-6.4,9.23c7.97-0.54,14.4-4.55,14.4-9.23     C149.123,138.247,142.683,134.247,134.703,133.707z"/>
		</g>
	</g>
	<g>
		<g>
			<path class="st5" d="M110.414,157.987c3.97,2.24,6.43,5.52,6.43,9.24c0,3.71-2.46,7-6.41,9.23c7.98-0.54,14.41-4.55,14.41-9.23     C124.843,162.536,118.404,158.527,110.414,157.987z"/>
		</g>
	</g>
	<g>
		<g>
			<path class="st1" d="M47.701,26.237c-0.974,11.564-13.025,13.39-13.025,13.39c10.347,0.487,12.925,14.059,12.925,14.059     c0.221-9.677,13.321-14.202,13.321-14.202C51.109,38.896,47.701,26.237,47.701,26.237z"/>
		</g>
	</g>
	<g>
		<g>
			<path class="st0" d="M61.012,37.986c-8.604-0.515-11.832-12.024-11.863-12.141c-0.191-0.703-0.859-1.171-1.583-1.102     c-0.725,0.066-1.298,0.642-1.359,1.367c-0.86,10.215-11.313,11.963-11.754,12.031c-0.763,0.116-1.313,0.791-1.273,1.561     c0.04,0.771,0.657,1.385,1.427,1.421c9.028,0.426,11.498,12.719,11.522,12.843c0.137,0.712,0.759,1.218,1.472,1.218     c0.042,0,0.084-0.002,0.126-0.005c0.764-0.064,1.357-0.693,1.374-1.46c0.195-8.509,12.192-12.777,12.313-12.819     c0.675-0.234,1.092-0.914,0.994-1.622C62.31,38.569,61.726,38.028,61.012,37.986z M47.446,48.332     c-1.357-3.131-3.708-6.908-7.586-8.877c2.931-1.404,6.409-3.913,8.202-8.272c1.551,3.071,4.199,6.88,8.334,8.723     C53.388,41.545,49.473,44.311,47.446,48.332z"/>
		</g>
	</g>
	<g>
		<g>
			<path class="st1" d="M26.002,43.217c-0.689,8.179-9.212,9.471-9.212,9.471c7.318,0.344,9.142,9.944,9.142,9.944     c0.156-6.845,9.422-10.045,9.422-10.045C28.413,52.171,26.002,43.217,26.002,43.217z"/>
		</g>
	</g>
	<g>
		<g>
			<path class="st0" d="M35.443,51.09c-5.766-0.345-7.972-8.186-7.993-8.265c-0.19-0.701-0.851-1.172-1.582-1.102     c-0.726,0.065-1.299,0.643-1.36,1.368c-0.579,6.87-7.647,8.065-7.942,8.112c-0.763,0.116-1.313,0.791-1.273,1.561     c0.04,0.771,0.657,1.385,1.427,1.421c6.035,0.284,7.724,8.645,7.739,8.727c0.135,0.713,0.759,1.22,1.472,1.22     c0.041,0,0.083-0.002,0.125-0.005c0.765-0.063,1.358-0.693,1.376-1.461c0.13-5.708,8.332-8.633,8.412-8.661     c0.677-0.234,1.094-0.913,0.996-1.622C36.743,51.674,36.158,51.132,35.443,51.09z M25.859,57.885     c-0.924-1.886-2.34-3.947-4.447-5.28c1.856-1.041,3.697-2.63,4.871-4.916c1.057,1.874,2.654,3.954,4.941,5.224     C29.375,54.013,27.235,55.652,25.859,57.885z"/>
		</g>
	</g>
	<g>
		<g>
			<path class="st1" d="M26.002,16.56c-0.689,8.179-9.212,9.471-9.212,9.471c7.318,0.344,9.142,9.944,9.142,9.944     c0.156-6.845,9.422-10.045,9.422-10.045C28.413,25.514,26.002,16.56,26.002,16.56z"/>
		</g>
	</g>
	<g>
		<g>
			<path class="st0" d="M35.444,24.433c-5.766-0.346-7.972-8.187-7.994-8.266c-0.19-0.702-0.851-1.165-1.582-1.102     c-0.726,0.065-1.299,0.643-1.36,1.368c-0.579,6.871-7.647,8.066-7.942,8.113c-0.763,0.116-1.313,0.791-1.273,1.561     c0.04,0.771,0.657,1.385,1.427,1.421c6.035,0.284,7.724,8.645,7.739,8.727c0.135,0.713,0.759,1.22,1.472,1.22     c0.041,0,0.083-0.002,0.125-0.005c0.765-0.063,1.358-0.693,1.376-1.461c0.13-5.709,8.331-8.633,8.412-8.661     c0.676-0.233,1.094-0.913,0.996-1.622C36.743,25.017,36.158,24.476,35.444,24.433z M25.859,31.227     c-0.924-1.885-2.34-3.947-4.447-5.279c1.855-1.041,3.697-2.63,4.871-4.917c1.057,1.874,2.654,3.955,4.941,5.225     C29.374,27.355,27.235,28.994,25.859,31.227z"/>
		</g>
	</g>
	<g>
		<g>
			<path class="st2" d="M115.647,97.38h-49.94c-8.88,0-16.09,7.2-16.09,16.09v109.88c0,8.89,7.21,16.09,16.09,16.09h49.94     c8.88,0,16.09-7.2,16.09-16.09V113.47C131.737,104.58,124.527,97.38,115.647,97.38z"/>
		</g>
	</g>
	<g>
		<g>
			<path class="st0" d="M115.646,95.88h-49.94c-9.699,0-17.59,7.891-17.59,17.59v0.828c0,0.828,0.671,1.5,1.5,1.5s1.5-0.672,1.5-1.5     v-0.828c0-8.045,6.545-14.59,14.59-14.59h49.94c8.045,0,14.59,6.545,14.59,14.59v109.881c0,8.045-6.545,14.59-14.59,14.59h-49.94     c-8.045,0-14.59-6.545-14.59-14.59v-95.148c0-0.828-0.671-1.5-1.5-1.5s-1.5,0.672-1.5,1.5v95.148     c0,9.699,7.891,17.59,17.59,17.59h49.94c9.699,0,17.59-7.891,17.59-17.59V113.47C133.237,103.771,125.346,95.88,115.646,95.88z"/>
		</g>
	</g>
	<g>
		<g>
			<rect x="65.414" y="81.252" class="st6" width="50.526" height="16.127"/>
		</g>
	</g>
	<g>
		<g>
			<path class="st0" d="M115.94,79.752H65.414c-0.829,0-1.5,0.672-1.5,1.5v16.127c0,0.828,0.671,1.5,1.5,1.5h50.526     c0.829,0,1.5-0.672,1.5-1.5V81.252C117.44,80.424,116.769,79.752,115.94,79.752z M114.44,95.879H66.914V82.752h47.526V95.879z"/>
		</g>
	</g>
	<g>
		<g>
			<path class="st6" d="M116.558,57.5H64.795c-3.524,0-6.381,2.857-6.381,6.382v10.989c0,3.524,2.857,6.382,6.381,6.382h51.763     c3.524,0,6.381-2.857,6.381-6.382V63.882C122.94,60.357,120.083,57.5,116.558,57.5z"/>
		</g>
	</g>
	<g>
		<g>
			<path class="st0" d="M116.558,56H64.795c-4.346,0-7.881,3.536-7.881,7.882v10.989c0,4.346,3.536,7.881,7.881,7.881h51.763     c4.346,0,7.882-3.535,7.882-7.881V63.882C124.44,59.536,120.904,56,116.558,56z M121.44,74.871c0,2.691-2.19,4.881-4.882,4.881     H64.795c-2.691,0-4.881-2.189-4.881-4.881V63.882c0-2.691,2.19-4.882,4.881-4.882h51.763c2.692,0,4.882,2.19,4.882,4.882V74.871z     "/>
		</g>
	</g>
	<g>
		<g>
			<path class="st6" d="M90.677,16.56c-6.089,0-11.026,4.937-11.026,11.026V57.5h22.052V27.586     C101.703,21.497,96.766,16.56,90.677,16.56z"/>
		</g>
	</g>
	<g>
		<g>
			<path class="st0" d="M90.677,15.06c-6.907,0-12.526,5.619-12.526,12.526V57.5c0,0.828,0.671,1.5,1.5,1.5h22.052     c0.829,0,1.5-0.672,1.5-1.5V27.586C103.203,20.679,97.583,15.06,90.677,15.06z M100.203,56H81.15V27.586     c0-5.253,4.273-9.526,9.526-9.526c5.252,0,9.526,4.273,9.526,9.526V56z"/>
		</g>
	</g>
	<g>
		<g>
			<polygon class="st7" points="49.617,130.5 49.617,210 100.108,210 113.352,210 131.737,210 131.737,130.5    "/>
		</g>
	</g>
	<g>
		<g>
			<path class="st0" d="M131.737,129h-82.12c-0.829,0-1.5,0.672-1.5,1.5V210c0,0.828,0.671,1.5,1.5,1.5h50.492     c0.829,0,1.5-0.672,1.5-1.5s-0.671-1.5-1.5-1.5H51.117V132h79.12v76.5h-16.885c-0.829,0-1.5,0.672-1.5,1.5s0.671,1.5,1.5,1.5     h18.385c0.829,0,1.5-0.672,1.5-1.5v-79.5C133.237,129.672,132.565,129,131.737,129z"/>
		</g>
	</g>
	<g>
		<g>
			<path class="st4" d="M117.74,211.5v11.85c0,8.04-6.55,14.59-14.59,14.59h12.5c8.04,0,14.59-6.55,14.59-14.59V211.5H117.74z"/>
		</g>
	</g>
	<g>
		<g>
			<path class="st4" d="M115.65,98.88h-12.5c8.04,0,14.59,6.54,14.59,14.59V129h12.5v-15.53     C130.24,105.42,123.69,98.88,115.65,98.88z"/>
		</g>
	</g>
	<g>
		<g>
			<rect x="117.74" y="132" class="st10" width="12.5" height="76.5"/>
		</g>
	</g>
	<g>
		<g>
			<path class="st1" d="M90.677,143.743c-3.14,0-18.287,16.394-18.287,31.033c0,14.64,8.188,21.982,18.287,21.982     c10.1,0,18.288-7.342,18.288-21.982C108.964,160.136,94.371,143.743,90.677,143.743z"/>
		</g>
	</g>
	<g>
		<g>
			<path class="st0" d="M90.677,142.243c-4.689,0-19.788,17.673-19.788,32.532c0,14.265,7.767,23.481,19.788,23.481     c12.02,0,19.787-9.217,19.787-23.481C110.464,159.533,95.494,142.243,90.677,142.243z M90.677,195.257     c-10.355,0-16.788-7.848-16.788-20.481c0-14.108,14.395-29.078,16.777-29.532c2.842,0.228,16.798,15.792,16.798,29.532     C107.464,187.409,101.031,195.257,90.677,195.257z"/>
		</g>
	</g>
</g>
</svg>
