<svg xmlns="http://www.w3.org/2000/svg" xmlns:xlink="http://www.w3.org/1999/xlink" preserveAspectRatio="xMidYMid" width="197" height="68" viewBox="0 0 197 68">
  <defs>
    <style>
      .cls-1, .cls-3 {
        fill: #f55d2c;
      }

      .cls-1, .cls-2, .cls-4 {
        fill-rule: evenodd;
      }

      .cls-2 {
        fill: #2b2f4c;
      }

      .cls-3 {
        filter: url(#filter-chain-1);
      }

      .cls-4 {
        fill: #fff;
      }
    </style>

    <filter id="filter-chain-1" filterUnits="userSpaceOnUse">
      <feOffset dy="2" in="SourceAlpha"/>
      <feGaussianBlur stdDeviation="2.236" result="dropBlur"/>
      <feFlood flood-opacity="0.24"/>
      <feComposite operator="in" in2="dropBlur" result="dropShadowComp"/>
      <feComposite in="SourceGraphic" result="shadowed"/>
      <feOffset dy="3" in="SourceAlpha"/>
      <feGaussianBlur stdDeviation="2.646" result="innerShadowBlur"/>
      <feFlood flood-opacity="0.26"/>
      <feComposite operator="out" in2="innerShadowBlur"/>
      <feComposite operator="in" in2="SourceAlpha"/>
      <feBlend mode="multiply" in2="shadowed" result="innerShadow"/>
    </filter>
  </defs>
  <g>
    <path d="M194.901,48.038 L193.305,48.038 C193.193,48.038 193.137,48.089 193.137,48.192 L193.137,55.206 C193.137,55.402 193.039,55.500 192.843,55.500 L191.667,55.500 C191.462,55.500 191.359,55.402 191.359,55.206 L191.359,48.192 C191.359,48.089 191.308,48.038 191.205,48.038 L189.609,48.038 C189.413,48.038 189.315,47.940 189.315,47.744 L189.315,46.792 C189.315,46.596 189.413,46.498 189.609,46.498 L194.901,46.498 C195.097,46.498 195.195,46.596 195.195,46.792 L195.195,47.744 C195.195,47.940 195.097,48.038 194.901,48.038 ZM180.985,55.500 C180.789,55.500 180.691,55.402 180.691,55.206 L180.691,46.792 C180.691,46.596 180.789,46.498 180.985,46.498 L185.563,46.498 C185.750,46.498 185.843,46.596 185.843,46.792 L185.843,47.744 C185.843,47.940 185.750,48.038 185.563,48.038 L182.637,48.038 C182.525,48.038 182.469,48.089 182.469,48.192 L182.469,50.012 C182.469,50.115 182.525,50.166 182.637,50.166 L185.031,50.166 C185.227,50.166 185.325,50.264 185.325,50.460 L185.325,51.412 C185.325,51.608 185.227,51.706 185.031,51.706 L182.637,51.706 C182.525,51.706 182.469,51.757 182.469,51.860 L182.469,53.806 C182.469,53.909 182.525,53.960 182.637,53.960 L185.563,53.960 C185.750,53.960 185.843,54.058 185.843,54.254 L185.843,55.206 C185.843,55.402 185.750,55.500 185.563,55.500 L180.985,55.500 ZM176.701,55.500 L175.679,55.500 C175.352,55.500 175.133,55.402 175.021,55.206 L172.879,51.776 L171.997,52.812 L171.997,55.206 C171.997,55.402 171.899,55.500 171.703,55.500 L170.513,55.500 C170.317,55.500 170.219,55.402 170.219,55.206 L170.219,46.792 C170.219,46.596 170.317,46.498 170.513,46.498 L171.703,46.498 C171.899,46.498 171.997,46.596 171.997,46.792 L171.997,50.782 L172.025,50.782 C172.100,50.558 172.244,50.269 172.459,49.914 L174.587,46.792 C174.708,46.596 174.890,46.498 175.133,46.498 L176.505,46.498 C176.608,46.498 176.671,46.528 176.694,46.589 C176.717,46.650 176.692,46.727 176.617,46.820 L173.957,50.502 L176.925,55.150 C176.990,55.262 177.002,55.348 176.960,55.409 C176.918,55.470 176.832,55.500 176.701,55.500 ZM164.731,55.500 C164.563,55.500 164.442,55.481 164.367,55.444 C164.292,55.407 164.232,55.327 164.185,55.206 L162.785,52.182 L161.847,52.182 C161.735,52.182 161.679,52.233 161.679,52.336 L161.679,55.206 C161.679,55.402 161.581,55.500 161.385,55.500 L160.195,55.500 C159.999,55.500 159.901,55.402 159.901,55.206 L159.901,46.792 C159.901,46.596 159.999,46.498 160.195,46.498 L163.527,46.498 C164.255,46.498 164.824,46.699 165.235,47.100 C165.646,47.501 165.851,48.066 165.851,48.794 L165.851,49.886 C165.851,50.941 165.436,51.641 164.605,51.986 L164.605,52.042 L166.103,55.164 C166.187,55.388 166.108,55.500 165.865,55.500 L164.731,55.500 ZM164.073,48.864 C164.073,48.575 164.003,48.365 163.863,48.234 C163.723,48.103 163.504,48.038 163.205,48.038 L161.833,48.038 C161.730,48.038 161.679,48.089 161.679,48.192 L161.679,50.600 C161.679,50.703 161.730,50.754 161.833,50.754 L163.205,50.754 C163.504,50.754 163.723,50.691 163.863,50.565 C164.003,50.439 164.073,50.236 164.073,49.956 L164.073,48.864 ZM154.483,55.500 C154.381,55.500 154.311,55.479 154.273,55.437 C154.236,55.395 154.208,55.318 154.189,55.206 L153.797,53.666 L151.067,53.666 L150.675,55.206 C150.657,55.318 150.626,55.395 150.584,55.437 C150.542,55.479 150.475,55.500 150.381,55.500 L149.037,55.500 C148.869,55.500 148.813,55.402 148.869,55.206 L151.081,46.792 C151.147,46.596 151.287,46.498 151.501,46.498 L153.363,46.498 C153.597,46.498 153.737,46.596 153.783,46.792 L155.995,55.206 C156.051,55.402 155.995,55.500 155.827,55.500 L154.483,55.500 ZM152.467,48.192 L152.411,48.192 L151.403,52.238 L153.475,52.238 L152.467,48.192 ZM143.521,55.500 C143.325,55.500 143.227,55.402 143.227,55.206 L143.227,48.570 L143.171,48.570 L141.743,53.260 C141.687,53.447 141.571,53.540 141.393,53.540 L140.217,53.540 C140.040,53.540 139.923,53.447 139.867,53.260 L138.411,48.556 L138.355,48.556 L138.355,55.206 C138.355,55.318 138.337,55.395 138.299,55.437 C138.262,55.479 138.183,55.500 138.061,55.500 L136.913,55.500 C136.717,55.500 136.619,55.402 136.619,55.206 L136.619,46.792 C136.619,46.596 136.717,46.498 136.913,46.498 L138.999,46.498 C139.130,46.498 139.219,46.563 139.265,46.694 L140.749,51.636 L140.833,51.636 L142.331,46.694 C142.359,46.563 142.448,46.498 142.597,46.498 L144.669,46.498 C144.865,46.498 144.963,46.596 144.963,46.792 L144.963,55.206 C144.963,55.402 144.865,55.500 144.669,55.500 L143.521,55.500 ZM125.392,55.500 C125.224,55.500 125.102,55.481 125.028,55.444 C124.953,55.407 124.892,55.327 124.846,55.206 L123.446,52.182 L122.508,52.182 C122.396,52.182 122.340,52.233 122.340,52.336 L122.340,55.206 C122.340,55.402 122.242,55.500 122.046,55.500 L120.856,55.500 C120.660,55.500 120.562,55.402 120.562,55.206 L120.562,46.792 C120.562,46.596 120.660,46.498 120.856,46.498 L124.188,46.498 C124.916,46.498 125.485,46.699 125.896,47.100 C126.306,47.501 126.512,48.066 126.512,48.794 L126.512,49.886 C126.512,50.941 126.096,51.641 125.266,51.986 L125.266,52.042 L126.764,55.164 C126.848,55.388 126.768,55.500 126.526,55.500 L125.392,55.500 ZM124.734,48.864 C124.734,48.575 124.664,48.365 124.524,48.234 C124.384,48.103 124.164,48.038 123.866,48.038 L122.494,48.038 C122.391,48.038 122.340,48.089 122.340,48.192 L122.340,50.600 C122.340,50.703 122.391,50.754 122.494,50.754 L123.866,50.754 C124.164,50.754 124.384,50.691 124.524,50.565 C124.664,50.439 124.734,50.236 124.734,49.956 L124.734,48.864 ZM111.490,55.500 C111.294,55.500 111.196,55.402 111.196,55.206 L111.196,46.792 C111.196,46.596 111.294,46.498 111.490,46.498 L116.068,46.498 C116.254,46.498 116.348,46.596 116.348,46.792 L116.348,47.744 C116.348,47.940 116.254,48.038 116.068,48.038 L113.142,48.038 C113.030,48.038 112.974,48.089 112.974,48.192 L112.974,50.012 C112.974,50.115 113.030,50.166 113.142,50.166 L115.536,50.166 C115.732,50.166 115.830,50.264 115.830,50.460 L115.830,51.412 C115.830,51.608 115.732,51.706 115.536,51.706 L113.142,51.706 C113.030,51.706 112.974,51.757 112.974,51.860 L112.974,53.806 C112.974,53.909 113.030,53.960 113.142,53.960 L116.068,53.960 C116.254,53.960 116.348,54.058 116.348,54.254 L116.348,55.206 C116.348,55.402 116.254,55.500 116.068,55.500 L111.490,55.500 ZM104.826,52.406 L103.062,52.406 C102.950,52.406 102.894,52.457 102.894,52.560 L102.894,55.206 C102.894,55.402 102.796,55.500 102.600,55.500 L101.410,55.500 C101.214,55.500 101.116,55.402 101.116,55.206 L101.116,46.792 C101.116,46.596 101.214,46.498 101.410,46.498 L104.826,46.498 C105.554,46.498 106.118,46.696 106.520,47.093 C106.921,47.490 107.122,48.052 107.122,48.780 L107.122,50.124 C107.122,50.852 106.921,51.414 106.520,51.811 C106.118,52.208 105.554,52.406 104.826,52.406 ZM105.344,48.864 C105.344,48.565 105.283,48.353 105.162,48.227 C105.040,48.101 104.830,48.038 104.532,48.038 L103.048,48.038 C102.945,48.038 102.894,48.089 102.894,48.192 L102.894,50.698 C102.894,50.801 102.945,50.852 103.048,50.852 L104.532,50.852 C104.830,50.852 105.040,50.789 105.162,50.663 C105.283,50.537 105.344,50.329 105.344,50.040 L105.344,48.864 ZM94.396,55.500 L92.856,55.500 C92.118,55.500 91.549,55.304 91.148,54.912 C90.746,54.520 90.546,53.955 90.546,53.218 L90.546,46.792 C90.546,46.596 90.644,46.498 90.840,46.498 L92.030,46.498 C92.226,46.498 92.324,46.596 92.324,46.792 L92.324,53.134 C92.324,53.433 92.387,53.645 92.513,53.771 C92.639,53.897 92.846,53.960 93.136,53.960 L94.102,53.960 C94.400,53.960 94.613,53.897 94.739,53.771 C94.865,53.645 94.928,53.433 94.928,53.134 L94.928,46.792 C94.928,46.596 95.026,46.498 95.222,46.498 L96.398,46.498 C96.603,46.498 96.706,46.591 96.706,46.778 L96.706,53.218 C96.706,53.946 96.503,54.508 96.097,54.905 C95.691,55.302 95.124,55.500 94.396,55.500 ZM84.036,55.500 L82.510,55.500 C81.782,55.500 81.213,55.299 80.802,54.898 C80.391,54.497 80.186,53.932 80.186,53.204 L80.186,52.924 C80.186,52.728 80.284,52.630 80.480,52.630 L81.670,52.630 C81.866,52.630 81.964,52.728 81.964,52.924 L81.964,53.036 C81.964,53.391 82.034,53.633 82.174,53.764 C82.314,53.895 82.571,53.960 82.944,53.960 L83.602,53.960 C83.966,53.960 84.220,53.890 84.365,53.750 C84.510,53.610 84.582,53.349 84.582,52.966 L84.582,52.798 C84.582,52.527 84.472,52.320 84.253,52.175 C84.034,52.030 83.761,51.944 83.434,51.916 C83.107,51.888 82.755,51.834 82.377,51.755 C81.999,51.676 81.647,51.573 81.320,51.447 C80.993,51.321 80.720,51.074 80.501,50.705 C80.282,50.336 80.172,49.863 80.172,49.284 L80.172,48.794 C80.172,48.066 80.377,47.501 80.788,47.100 C81.199,46.699 81.768,46.498 82.496,46.498 L83.896,46.498 C84.633,46.498 85.207,46.699 85.618,47.100 C86.029,47.501 86.234,48.066 86.234,48.794 L86.234,49.060 C86.234,49.256 86.136,49.354 85.940,49.354 L84.750,49.354 C84.554,49.354 84.456,49.256 84.456,49.060 L84.456,48.976 C84.456,48.612 84.386,48.365 84.246,48.234 C84.106,48.103 83.849,48.038 83.476,48.038 L82.930,48.038 C82.547,48.038 82.288,48.110 82.153,48.255 C82.018,48.400 81.950,48.682 81.950,49.102 L81.950,49.368 C81.950,49.807 82.333,50.059 83.098,50.124 C83.891,50.189 84.596,50.348 85.212,50.600 C85.539,50.740 85.812,50.990 86.031,51.349 C86.250,51.708 86.360,52.168 86.360,52.728 L86.360,53.204 C86.360,53.932 86.155,54.497 85.744,54.898 C85.333,55.299 84.764,55.500 84.036,55.500 Z" class="cls-1"/>
    <path d="M194.413,32.715 C193.195,33.905 191.494,34.500 189.310,34.500 L185.572,34.500 C183.360,34.500 181.652,33.912 180.448,32.736 C179.244,31.560 178.642,29.866 178.642,27.654 L178.642,19.926 C178.642,17.714 179.244,16.020 180.448,14.844 C181.652,13.668 183.360,13.080 185.572,13.080 L189.310,13.080 C191.494,13.080 193.195,13.675 194.413,14.865 C195.631,16.055 196.240,17.742 196.240,19.926 L196.240,27.654 C196.240,29.838 195.631,31.525 194.413,32.715 ZM190.990,20.094 C190.990,19.198 190.801,18.568 190.423,18.204 C190.045,17.840 189.408,17.658 188.512,17.658 L186.370,17.658 C185.474,17.658 184.844,17.840 184.480,18.204 C184.116,18.568 183.934,19.198 183.934,20.094 L183.934,27.486 C183.934,28.382 184.116,29.012 184.480,29.376 C184.844,29.740 185.474,29.922 186.370,29.922 L188.512,29.922 C189.408,29.922 190.045,29.740 190.423,29.376 C190.801,29.012 190.990,28.382 190.990,27.486 L190.990,20.094 ZM167.933,34.500 L157.853,34.500 C157.265,34.500 156.971,34.206 156.971,33.618 L156.971,5.856 C156.971,5.268 157.265,4.974 157.853,4.974 L161.423,4.974 C162.011,4.974 162.305,5.268 162.305,5.856 L162.305,15.306 L162.473,15.306 C162.781,14.550 163.327,13.976 164.111,13.584 C164.895,13.192 165.721,12.996 166.589,12.996 L167.933,12.996 C170.145,12.996 171.853,13.584 173.057,14.760 C174.261,15.936 174.863,17.630 174.863,19.842 L174.863,27.654 C174.863,29.866 174.261,31.560 173.057,32.736 C171.853,33.912 170.145,34.500 167.933,34.500 ZM169.529,20.094 C169.529,19.198 169.340,18.561 168.962,18.183 C168.584,17.805 167.947,17.616 167.051,17.616 L165.203,17.616 C163.271,17.616 162.305,18.680 162.305,20.808 L162.305,29.418 C162.305,29.726 162.459,29.880 162.767,29.880 L167.051,29.880 C167.947,29.880 168.584,29.691 168.962,29.313 C169.340,28.935 169.529,28.298 169.529,27.402 L169.529,20.094 ZM151.638,34.500 L148.068,34.500 C147.480,34.500 147.186,34.206 147.186,33.618 L147.186,20.178 C147.186,19.282 147.003,18.645 146.640,18.267 C146.275,17.889 145.645,17.700 144.750,17.700 L143.700,17.700 C141.768,17.700 140.802,18.778 140.802,20.934 L140.802,33.618 C140.802,34.206 140.493,34.500 139.878,34.500 L136.350,34.500 C135.762,34.500 135.468,34.206 135.468,33.618 L135.468,20.178 C135.468,19.282 135.279,18.645 134.901,18.267 C134.523,17.889 133.885,17.700 132.990,17.700 L131.688,17.700 C129.756,17.700 128.790,18.764 128.790,20.892 L128.790,33.618 C128.790,34.206 128.496,34.500 127.908,34.500 L124.338,34.500 C123.750,34.500 123.456,34.206 123.456,33.618 L123.456,13.962 C123.456,13.374 123.750,13.080 124.338,13.080 L127.908,13.080 C128.496,13.080 128.790,13.374 128.790,13.962 L128.790,15.348 L128.958,15.348 C129.294,14.676 129.861,14.130 130.659,13.710 C131.457,13.290 132.373,13.080 133.410,13.080 L134.586,13.080 C137.022,13.080 138.771,13.976 139.836,15.768 C140.787,13.976 142.425,13.080 144.750,13.080 L145.968,13.080 C148.123,13.080 149.754,13.668 150.861,14.844 C151.966,16.020 152.520,17.714 152.520,19.926 L152.520,33.618 C152.520,34.206 152.226,34.500 151.638,34.500 ZM117.912,34.500 L114.384,34.500 C113.796,34.500 113.502,34.206 113.502,33.618 L113.502,32.232 L113.334,32.232 C113.025,32.988 112.479,33.555 111.696,33.933 C110.912,34.311 110.085,34.500 109.218,34.500 L108.210,34.500 C105.998,34.500 104.289,33.912 103.086,32.736 C101.882,31.560 101.280,29.866 101.280,27.654 L101.280,19.926 C101.280,17.714 101.882,16.020 103.086,14.844 C104.289,13.668 105.998,13.080 108.210,13.080 L117.912,13.080 C118.527,13.080 118.836,13.374 118.836,13.962 L118.836,33.618 C118.836,34.206 118.527,34.500 117.912,34.500 ZM113.502,18.162 C113.502,17.854 113.334,17.700 112.998,17.700 L109.050,17.700 C108.153,17.700 107.523,17.889 107.160,18.267 C106.796,18.645 106.614,19.282 106.614,20.178 L106.614,27.402 C106.614,28.298 106.796,28.935 107.160,29.313 C107.523,29.691 108.153,29.880 109.050,29.880 L110.604,29.880 C112.536,29.880 113.502,28.816 113.502,26.688 L113.502,18.162 ZM90.192,34.500 L85.740,34.500 C83.528,34.500 81.820,33.912 80.616,32.736 C79.412,31.560 78.810,29.866 78.810,27.654 L78.810,14.340 C78.810,12.128 79.412,10.434 80.616,9.258 C81.820,8.082 83.528,7.494 85.740,7.494 L90.192,7.494 C92.376,7.494 94.070,8.089 95.274,9.279 C96.478,10.469 97.080,12.156 97.080,14.340 L97.080,15.600 C97.080,16.216 96.786,16.524 96.198,16.524 L92.628,16.524 C92.040,16.524 91.746,16.216 91.746,15.600 L91.746,14.592 C91.746,13.696 91.564,13.059 91.200,12.681 C90.836,12.303 90.206,12.114 89.310,12.114 L86.580,12.114 C85.712,12.114 85.089,12.303 84.711,12.681 C84.333,13.059 84.144,13.696 84.144,14.592 L84.144,27.402 C84.144,28.298 84.333,28.935 84.711,29.313 C85.089,29.691 85.712,29.880 86.580,29.880 L89.310,29.880 C90.206,29.880 90.836,29.691 91.200,29.313 C91.564,28.935 91.746,28.298 91.746,27.402 L91.746,24.756 C91.746,24.448 91.592,24.294 91.284,24.294 L88.764,24.294 C88.176,24.294 87.882,24.000 87.882,23.412 L87.882,20.556 C87.882,19.968 88.176,19.674 88.764,19.674 L96.114,19.674 C96.758,19.674 97.080,19.996 97.080,20.640 L97.080,27.654 C97.080,29.838 96.478,31.525 95.274,32.715 C94.070,33.905 92.376,34.500 90.192,34.500 Z" class="cls-2"/>
  </g>
  <g>
    <rect x="4" y="2" width="60" height="60" rx="10" ry="10" class="cls-3"/>
    <path d="M42.850,46.375 C44.283,44.959 45.000,42.950 45.000,40.350 L45.000,32.000 C45.000,31.234 44.616,30.850 43.850,30.850 L35.100,30.850 C34.400,30.850 34.050,31.200 34.050,31.900 L34.050,35.300 C34.050,36.000 34.400,36.350 35.100,36.350 L38.100,36.350 C38.466,36.350 38.650,36.534 38.650,36.900 L38.650,40.050 C38.650,41.117 38.433,41.875 38.000,42.325 C37.566,42.775 36.816,43.000 35.750,43.000 L32.500,43.000 C31.466,43.000 30.725,42.775 30.275,42.325 C29.825,41.875 29.600,41.117 29.600,40.050 L29.600,24.800 C29.600,23.734 29.825,22.975 30.275,22.525 C30.725,22.075 31.466,21.850 32.500,21.850 L35.750,21.850 C36.816,21.850 37.566,22.075 38.000,22.525 C38.433,22.975 38.650,23.734 38.650,24.800 L38.650,26.000 C38.650,26.734 39.000,27.100 39.700,27.100 L43.950,27.100 C44.650,27.100 45.000,26.734 45.000,26.000 L45.000,24.500 C45.000,21.900 44.283,19.892 42.850,18.475 C41.416,17.059 39.400,16.350 36.800,16.350 L31.500,16.350 C28.866,16.350 26.833,17.050 25.400,18.450 C23.966,19.850 23.250,21.867 23.250,24.500 L23.250,40.350 C23.250,42.984 23.966,45.000 25.400,46.400 C26.833,47.800 28.866,48.500 31.500,48.500 L36.800,48.500 C39.400,48.500 41.416,47.792 42.850,46.375 Z" class="cls-4"/>
  </g>
</svg>
