<?xml version="1.0" encoding="iso-8859-1"?>
<!-- Generator: Adobe Illustrator 19.0.0, SVG Export Plug-In . SVG Version: 6.00 Build 0)  -->
<svg version="1.1" id="Capa_1" xmlns="http://www.w3.org/2000/svg" xmlns:xlink="http://www.w3.org/1999/xlink" x="0px" y="0px"
	 viewBox="0 0 512 512" style="enable-background:new 0 0 512 512;" xml:space="preserve">
<rect x="33.067" y="136.533" style="fill:#FFD15C;" width="444.8" height="330.667"/>
<rect x="283.733" y="228.267" style="fill:#415A6B;" width="162.133" height="238.933"/>
<rect x="299.733" y="244.267" style="fill:#8AD7F8;" width="130.133" height="206.933"/>
<path style="fill:#F05540;" d="M0,102.4v48c0,28.8,22.4,51.2,51.2,51.2s51.2-22.4,51.2-51.2v-48H0z"/>
<path style="fill:#E8EAE9;" d="M102.4,102.4v48c0,28.8,22.4,51.2,51.2,51.2s51.2-22.4,51.2-51.2v-48H102.4z"/>
<path style="fill:#F05540;" d="M204.8,102.4v48c0,28.8,22.4,51.2,51.2,51.2c28.8,0,51.2-22.4,51.2-51.2v-48H204.8z"/>
<path style="fill:#E8EAE9;" d="M307.2,102.4v48c0,28.8,22.4,51.2,51.2,51.2c28.8,0,51.2-22.4,51.2-51.2v-48H307.2z"/>
<path style="fill:#F05540;" d="M409.6,102.4v48c0,28.8,22.4,51.2,51.2,51.2s51.2-22.4,51.2-51.2v-48H409.6z"/>
<polygon style="fill:#F3705A;" points="124.8,0 37.333,0 0,102.4 102.4,102.4 "/>
<polygon style="fill:#F3F3F3;" points="212.267,0 124.8,0 102.4,102.4 204.8,102.4 "/>
<polygon style="fill:#F3705A;" points="299.733,0 212.267,0 204.8,102.4 307.2,102.4 "/>
<polygon style="fill:#F3F3F3;" points="387.2,0 299.733,0 307.2,102.4 409.6,102.4 "/>
<polygon style="fill:#F3705A;" points="474.667,0 387.2,0 409.6,102.4 512,102.4 "/>
<rect y="467.2" style="fill:#CED6E0;" width="512" height="44.8"/>
<g>
	<circle style="fill:#415A6B;" cx="320" cy="347.733" r="13.867"/>
	<rect x="65.067" y="228.267" style="fill:#415A6B;" width="180.267" height="162.133"/>
</g>
<rect x="81.067" y="244.267" style="fill:#8AD7F8;" width="148.267" height="130.133"/>
<g>
	<path style="fill:#55C0EB;" d="M158.933,264.533c-2.133-2.133-7.467-2.133-9.6,0L97.067,316.8c-2.133,2.133-2.133,7.467,0,9.6
		s7.467,2.133,9.6,0l52.267-52.267C162.133,270.933,162.133,266.667,158.933,264.533z"/>
	<path style="fill:#55C0EB;" d="M170.667,295.467c-2.133-2.133-7.467-2.133-9.6,0L128,328.533c-2.133,2.133-2.133,7.467,0,9.6
		s7.467,2.133,9.6,0l33.067-33.067C173.867,301.867,173.867,297.6,170.667,295.467z"/>
</g>
<g>
</g>
<g>
</g>
<g>
</g>
<g>
</g>
<g>
</g>
<g>
</g>
<g>
</g>
<g>
</g>
<g>
</g>
<g>
</g>
<g>
</g>
<g>
</g>
<g>
</g>
<g>
</g>
<g>
</g>
</svg>
